<svg width="12" height="9" viewBox="0 0 12 9" fill="none" xmlns="http://www.w3.org/2000/svg">
<path d="M0.555985 5.28096L9.34898 5.28097L6.70248 7.92746C6.65473 7.97359 6.61664 8.02876 6.59043 8.08976C6.56423 8.15076 6.55044 8.21637 6.54986 8.28276C6.54928 8.34915 6.56193 8.41499 6.58707 8.47644C6.61221 8.53789 6.64934 8.59372 6.69629 8.64066C6.74323 8.68761 6.79906 8.72474 6.86051 8.74988C6.92196 8.77502 6.9878 8.78767 7.05418 8.78709C7.12057 8.78651 7.18618 8.77272 7.24719 8.74652C7.30819 8.72031 7.36336 8.68222 7.40948 8.63446L10.9095 5.13447C11.0032 5.0407 11.0559 4.91355 11.0559 4.78097C11.0559 4.64838 11.0032 4.52123 10.9095 4.42747L7.40949 0.927465C7.31518 0.836385 7.18888 0.785988 7.05778 0.787128C6.92669 0.788267 6.80128 0.840851 6.70858 0.933556C6.61587 1.02626 6.56329 1.15167 6.56215 1.28276C6.56101 1.41386 6.61141 1.54016 6.70249 1.63447L9.34898 4.28097L0.555985 4.28096C0.423376 4.28096 0.296199 4.33364 0.202431 4.42741C0.108663 4.52118 0.0559849 4.64836 0.0559848 4.78096C0.0559848 4.91357 0.108663 5.04075 0.202431 5.13452C0.296199 5.22829 0.423376 5.28096 0.555985 5.28096Z" fill="black"/>
</svg>
