<svg width="150" height="26" viewBox="0 0 150 26" fill="none" xmlns="http://www.w3.org/2000/svg">
<g clip-path="url(#clip0_8914_17142)">
<path d="M6.48848 3.25261L10.3234 1.03798C10.4326 0.974971 10.5681 0.974971 10.6773 1.03798L20.7844 6.87332C20.8936 6.93633 20.9608 7.05289 20.9619 7.1789L20.9755 11.1923C20.9755 11.3194 20.9083 11.437 20.798 11.5L16.9684 13.7115C16.7331 13.848 16.4381 13.6779 16.437 13.4059L16.4244 9.80412C16.4244 9.67811 16.3562 9.56155 16.247 9.49854L6.48848 3.86587C6.25221 3.72935 6.25221 3.38913 6.48848 3.25261Z" fill="#010101"/>
<path d="M4.01134 21.4316L0.177465 19.218C0.0672057 19.155 0 19.0384 0 18.9114V7.24069C0 7.11468 0.0672057 6.99812 0.176415 6.93406L3.64591 4.91474C3.75617 4.85069 3.89163 4.85069 4.00084 4.91474L7.83051 7.12623C8.06573 7.26274 8.06678 7.60192 7.83156 7.73948L4.7191 9.55088C4.60989 9.61389 4.54269 9.73045 4.54269 9.85751V21.126C4.54269 21.399 4.24761 21.5692 4.01134 21.4326V21.4316Z" fill="#010101"/>
<path d="M20.9756 14.4832V18.9104C20.9756 19.0375 20.9084 19.154 20.7982 19.217L10.6911 25.0524C10.5819 25.1154 10.4474 25.1154 10.3382 25.0524L6.85509 23.0572C6.74483 22.9942 6.67657 22.8766 6.67657 22.7495V18.3276C6.67657 18.0556 6.9706 17.8855 7.20687 18.0199L10.3319 19.8103C10.4411 19.8733 10.5756 19.8723 10.6848 19.8103L20.4432 14.1756C20.6795 14.0391 20.9746 14.2092 20.9746 14.4822L20.9756 14.4832Z" fill="#010101"/>
<path d="M53.7508 7.07814H49.8361C49.666 7.07814 49.5295 7.2157 49.5295 7.38581V14.832C49.5295 15.7844 49.3751 16.5814 49.0653 17.222C48.7556 17.8436 48.3303 18.3099 47.7884 18.6207C47.2466 18.9116 46.627 19.0586 45.9308 19.0586C44.9238 19.0586 44.1404 18.7572 43.5797 18.1555C43.0378 17.5339 42.7669 16.5709 42.7669 15.2699V7.38686C42.7669 7.21675 42.6293 7.07919 42.4603 7.07919H39.6166C39.5935 7.07499 39.5704 7.07289 39.5473 7.07289H33.8832V6.75786C33.8832 5.9997 34.0575 5.43685 34.4061 5.06722C34.7736 4.67868 35.2871 4.48442 35.9445 4.48442C36.2931 4.48442 36.6218 4.53272 36.9316 4.63038C37.1227 4.69129 37.3106 4.77004 37.4734 4.85615C37.6362 4.94226 37.8378 4.86035 37.8997 4.68603L38.8784 1.97786C38.9288 1.83714 38.8721 1.67963 38.743 1.60507C38.3607 1.38351 37.9123 1.21654 37.3957 1.10313C36.7961 0.96767 36.1671 0.899414 35.5087 0.899414C33.5744 0.899414 32.0844 1.43391 31.0385 2.5029C29.9936 3.55194 29.4707 4.96116 29.4707 6.72951V7.07289H27.4251C27.2245 7.07289 27.0607 7.21045 27.0607 7.38056V10.262C27.0607 10.4321 27.2235 10.5697 27.4251 10.5697H29.4707V22.4514C29.4707 22.6216 29.6082 22.7591 29.7773 22.7591H33.691C33.8601 22.7591 33.9976 22.6216 33.9976 22.4514V10.5697H38.2379V15.9388C38.2379 17.5517 38.5183 18.8832 39.08 19.9323C39.6418 20.9624 40.4252 21.73 41.4312 22.2351C42.4571 22.7402 43.6185 22.9933 44.9143 22.9933C46.1146 22.9933 47.2172 22.7213 48.2232 22.1763C48.8217 21.8476 49.3342 21.4276 49.7616 20.9194V22.4514C49.7616 22.6216 49.8991 22.7591 50.0682 22.7591H53.7508C53.921 22.7591 54.0575 22.6216 54.0575 22.4514V7.38686C54.0575 7.21675 53.9199 7.07919 53.7508 7.07919V7.07814Z" fill="#010101"/>
<path d="M66.9316 14.5391C66.3898 14.2083 65.7796 13.9563 65.1023 13.7809C64.4261 13.6066 63.7477 13.4795 63.0704 13.4018C62.4131 13.3042 61.803 13.1981 61.2412 13.0815C60.6804 12.965 60.2247 12.8096 59.8771 12.6153C59.5474 12.421 59.3836 12.1302 59.3836 11.7406C59.3836 11.3132 59.6156 10.9635 60.0808 10.6915C60.545 10.4196 61.2811 10.2841 62.2871 10.2841C63.0032 10.2841 63.7383 10.3713 64.4933 10.5466C65.1706 10.6821 65.8395 10.9299 66.5021 11.289C66.6586 11.3731 66.8518 11.3111 66.9274 11.1504L68.177 8.47271C68.2453 8.32674 68.1896 8.15033 68.0489 8.07367C67.3579 7.69669 66.5221 7.40372 65.5392 7.19685C64.4366 6.96373 63.3529 6.84717 62.2881 6.84717C60.7791 6.84717 59.4823 7.07084 58.3986 7.51712C57.3149 7.94556 56.4832 8.53781 55.9025 9.29598C55.3418 10.0541 55.0603 10.9278 55.0603 11.9191C55.0603 12.8127 55.2252 13.5415 55.5539 14.1054C55.9025 14.6682 56.3572 15.1156 56.918 15.4463C57.4798 15.7771 58.0982 16.0291 58.7756 16.2045C59.4529 16.3599 60.1207 16.4859 60.7781 16.5836C61.4554 16.6813 62.0749 16.7779 62.6357 16.8745C63.1964 16.9721 63.6417 17.1181 63.9714 17.3124C64.32 17.4877 64.4943 17.7597 64.4943 18.1283C64.4943 18.5756 64.2717 18.9253 63.8265 19.1773C63.4012 19.4293 62.6651 19.5564 61.6202 19.5564C60.672 19.5564 59.7049 19.4209 58.7178 19.149C57.8767 18.8959 57.1311 18.584 56.4801 18.2133C56.3236 18.1241 56.1251 18.1871 56.0495 18.3509L54.7957 21.0633C54.7296 21.2061 54.7831 21.3751 54.9165 21.4571C55.6043 21.8771 56.4937 22.2352 57.5848 22.5302C58.8228 22.8411 60.1102 22.9965 61.4449 22.9965V22.9944C63.0116 22.9944 64.3379 22.7812 65.4216 22.3538C66.5242 21.9264 67.3663 21.3436 67.947 20.6054C68.5277 19.8483 68.8176 18.983 68.8176 18.0117C68.8176 17.1181 68.6432 16.3988 68.2946 15.8548C67.946 15.2909 67.4913 14.8541 66.9305 14.5433L66.9316 14.5391Z" fill="#010101"/>
<path d="M84.4975 10.636C83.7814 9.41156 82.8048 8.47908 81.5657 7.83748C80.3465 7.17697 79.0308 6.84619 77.4441 6.84619C75.8574 6.84619 74.4345 7.19587 73.1776 7.89523C71.9195 8.57464 70.923 9.52707 70.188 10.7515C69.4718 11.9559 69.1137 13.3651 69.1137 14.9193C69.1137 16.4734 69.4812 17.8637 70.2163 19.0871C70.9514 20.2915 71.9868 21.244 73.3214 21.9433C74.676 22.6427 76.2428 22.9924 78.0237 22.9924V22.9945C79.4371 22.9945 80.6857 22.7802 81.7683 22.3539C82.7565 21.9465 83.5913 21.3847 84.2738 20.6706C84.3852 20.5541 84.3852 20.3692 84.2759 20.2495L82.265 18.0601C82.1516 17.9372 81.9626 17.9288 81.8355 18.0391C81.3724 18.4434 80.8663 18.7542 80.3161 18.9716C79.6965 19.2236 78.9709 19.3507 78.1392 19.3507C77.2109 19.3507 76.3982 19.1858 75.7009 18.855C75.0236 18.5053 74.4912 18.0097 74.1048 17.3691C73.9042 17.01 73.7614 16.6204 73.67 16.2025H85.2053C85.3628 16.2025 85.4951 16.0817 85.5098 15.9242C85.5203 15.8161 85.5308 15.7037 85.5402 15.5903C85.5602 15.3572 85.5697 15.1534 85.5697 14.9781C85.5697 13.2874 85.2116 11.8404 84.4954 10.6349L84.4975 10.636ZM75.4121 10.8113C76.0117 10.4616 76.6996 10.2863 77.4735 10.2863C78.2474 10.2863 78.9247 10.4616 79.5054 10.8113C80.0861 11.1411 80.5408 11.6083 80.8695 12.21C81.0879 12.6091 81.2317 13.0564 81.3052 13.55H73.6175C73.6931 13.0648 73.836 12.6269 74.0481 12.2384C74.3778 11.6167 74.8314 11.1411 75.4121 10.8103V10.8113Z" fill="#010101"/>
</g>
<path d="M91.588 22.1006V5.30058H98.428C100.22 5.30058 101.788 5.66058 103.132 6.38059C104.492 7.08459 105.548 8.06859 106.3 9.33259C107.052 10.5966 107.428 12.0526 107.428 13.7006C107.428 15.3486 107.052 16.8046 106.3 18.0686C105.548 19.3326 104.492 20.3246 103.132 21.0446C101.788 21.7486 100.22 22.1006 98.428 22.1006H91.588ZM93.364 20.5646H98.332C99.82 20.5646 101.108 20.2766 102.196 19.7006C103.3 19.1086 104.156 18.3006 104.764 17.2766C105.372 16.2366 105.676 15.0446 105.676 13.7006C105.676 12.3406 105.372 11.1486 104.764 10.1246C104.156 9.10059 103.3 8.30059 102.196 7.72459C101.108 7.13259 99.82 6.83659 98.332 6.83659H93.364V20.5646ZM116.192 22.2206C114.976 22.2206 113.88 21.9486 112.904 21.4046C111.944 20.8446 111.184 20.0846 110.624 19.1246C110.064 18.1486 109.784 17.0366 109.784 15.7886C109.784 14.5246 110.064 13.4126 110.624 12.4526C111.184 11.4926 111.944 10.7406 112.904 10.1966C113.864 9.65259 114.96 9.38059 116.192 9.38059C117.44 9.38059 118.544 9.65259 119.504 10.1966C120.48 10.7406 121.24 11.4926 121.784 12.4526C122.344 13.4126 122.624 14.5246 122.624 15.7886C122.624 17.0366 122.344 18.1486 121.784 19.1246C121.24 20.0846 120.48 20.8446 119.504 21.4046C118.528 21.9486 117.424 22.2206 116.192 22.2206ZM116.192 20.7086C117.104 20.7086 117.912 20.5086 118.616 20.1086C119.32 19.6926 119.872 19.1166 120.272 18.3806C120.688 17.6286 120.896 16.7646 120.896 15.7886C120.896 14.7966 120.688 13.9326 120.272 13.1966C119.872 12.4606 119.32 11.8926 118.616 11.4926C117.912 11.0766 117.112 10.8686 116.216 10.8686C115.32 10.8686 114.52 11.0766 113.816 11.4926C113.112 11.8926 112.552 12.4606 112.136 13.1966C111.72 13.9326 111.512 14.7966 111.512 15.7886C111.512 16.7646 111.72 17.6286 112.136 18.3806C112.552 19.1166 113.112 19.6926 113.816 20.1086C114.52 20.5086 115.312 20.7086 116.192 20.7086ZM131.335 22.2206C130.087 22.2206 128.967 21.9486 127.975 21.4046C126.999 20.8446 126.231 20.0846 125.671 19.1246C125.111 18.1486 124.831 17.0366 124.831 15.7886C124.831 14.5246 125.111 13.4126 125.671 12.4526C126.231 11.4926 126.999 10.7406 127.975 10.1966C128.967 9.65259 130.087 9.38059 131.335 9.38059C132.407 9.38059 133.375 9.58859 134.239 10.0046C135.103 10.4206 135.783 11.0446 136.279 11.8766L135.007 12.7406C134.575 12.1006 134.039 11.6286 133.399 11.3246C132.759 11.0206 132.063 10.8686 131.311 10.8686C130.415 10.8686 129.607 11.0766 128.887 11.4926C128.167 11.8926 127.599 12.4606 127.183 13.1966C126.767 13.9326 126.559 14.7966 126.559 15.7886C126.559 16.7806 126.767 17.6446 127.183 18.3806C127.599 19.1166 128.167 19.6926 128.887 20.1086C129.607 20.5086 130.415 20.7086 131.311 20.7086C132.063 20.7086 132.759 20.5566 133.399 20.2526C134.039 19.9486 134.575 19.4846 135.007 18.8606L136.279 19.7246C135.783 20.5406 135.103 21.1646 134.239 21.5966C133.375 22.0126 132.407 22.2206 131.335 22.2206ZM143.01 22.2206C141.97 22.2206 140.986 22.0766 140.058 21.7886C139.13 21.4846 138.402 21.1086 137.874 20.6606L138.642 19.3166C139.154 19.7006 139.81 20.0366 140.61 20.3246C141.41 20.5966 142.25 20.7326 143.13 20.7326C144.33 20.7326 145.194 20.5486 145.722 20.1806C146.25 19.7966 146.514 19.2926 146.514 18.6686C146.514 18.2046 146.362 17.8446 146.058 17.5886C145.77 17.3166 145.386 17.1166 144.906 16.9886C144.426 16.8446 143.89 16.7246 143.298 16.6286C142.706 16.5326 142.114 16.4206 141.522 16.2926C140.946 16.1646 140.418 15.9806 139.938 15.7406C139.458 15.4846 139.066 15.1406 138.762 14.7086C138.474 14.2766 138.33 13.7006 138.33 12.9806C138.33 12.2926 138.522 11.6766 138.906 11.1326C139.29 10.5886 139.85 10.1646 140.586 9.86058C141.338 9.54059 142.25 9.38059 143.322 9.38059C144.138 9.38059 144.954 9.49259 145.77 9.71659C146.586 9.92459 147.258 10.2046 147.786 10.5566L147.042 11.9246C146.482 11.5406 145.882 11.2686 145.242 11.1086C144.602 10.9326 143.962 10.8446 143.322 10.8446C142.186 10.8446 141.346 11.0446 140.802 11.4446C140.274 11.8286 140.01 12.3246 140.01 12.9326C140.01 13.4126 140.154 13.7886 140.442 14.0606C140.746 14.3326 141.138 14.5486 141.618 14.7086C142.114 14.8526 142.65 14.9726 143.226 15.0686C143.818 15.1646 144.402 15.2846 144.978 15.4286C145.57 15.5566 146.106 15.7406 146.586 15.9806C147.082 16.2046 147.474 16.5326 147.762 16.9646C148.066 17.3806 148.218 17.9326 148.218 18.6206C148.218 19.3566 148.01 19.9966 147.594 20.5406C147.194 21.0686 146.602 21.4846 145.818 21.7886C145.05 22.0766 144.114 22.2206 143.01 22.2206Z" fill="black"/>
<defs>
<clipPath id="clip0_8914_17142">
<rect width="85.5707" height="24.2014" fill="white" transform="translate(0 0.899414)"/>
</clipPath>
</defs>
</svg>
