<svg width="86" height="26" viewBox="0 0 86 26" fill="none" xmlns="http://www.w3.org/2000/svg">
<g clip-path="url(#clip0_8076_19816)">
<path d="M6.4897 3.25261L10.3246 1.03798C10.4338 0.974971 10.5693 0.974971 10.6785 1.03798L20.7856 6.87332C20.8948 6.93633 20.962 7.05289 20.9631 7.1789L20.9767 11.1923C20.9767 11.3194 20.9095 11.437 20.7993 11.5L16.9696 13.7115C16.7344 13.848 16.4393 13.6779 16.4382 13.4059L16.4256 9.80412C16.4256 9.67811 16.3574 9.56155 16.2482 9.49854L6.4897 3.86587C6.25343 3.72935 6.25343 3.38913 6.4897 3.25261Z" fill="#010101"/>
<path d="M4.01134 21.4316L0.177465 19.218C0.0672057 19.155 0 19.0384 0 18.9114V7.24069C0 7.11468 0.0672057 6.99812 0.176415 6.93406L3.64591 4.91474C3.75617 4.85069 3.89163 4.85069 4.00084 4.91474L7.83051 7.12623C8.06573 7.26274 8.06678 7.60192 7.83156 7.73948L4.7191 9.55088C4.60989 9.61389 4.54269 9.73045 4.54269 9.85751V21.126C4.54269 21.399 4.24761 21.5692 4.01134 21.4326V21.4316Z" fill="#010101"/>
<path d="M20.9787 14.4832V18.9104C20.9787 19.0375 20.9115 19.154 20.8013 19.217L10.6942 25.0524C10.585 25.1154 10.4506 25.1154 10.3413 25.0524L6.8582 23.0572C6.74794 22.9942 6.67969 22.8766 6.67969 22.7495V18.3276C6.67969 18.0556 6.97371 17.8855 7.20998 18.0199L10.335 19.8103C10.4443 19.8733 10.5787 19.8723 10.6879 19.8103L20.4464 14.1756C20.6826 14.0391 20.9777 14.2092 20.9777 14.4822L20.9787 14.4832Z" fill="#010101"/>
<path d="M53.7526 7.07814H49.8379C49.6678 7.07814 49.5313 7.2157 49.5313 7.38581V14.832C49.5313 15.7844 49.3769 16.5814 49.0671 17.222C48.7573 17.8436 48.3321 18.3099 47.7902 18.6207C47.2484 18.9116 46.6288 19.0586 45.9326 19.0586C44.9256 19.0586 44.1422 18.7572 43.5814 18.1555C43.0396 17.5339 42.7687 16.5709 42.7687 15.2699V7.38686C42.7687 7.21675 42.6311 7.07919 42.4621 7.07919H39.6184C39.5953 7.07499 39.5722 7.07289 39.5491 7.07289H33.8849V6.75786C33.8849 5.9997 34.0592 5.43685 34.4079 5.06722C34.7754 4.67868 35.2889 4.48442 35.9462 4.48442C36.2949 4.48442 36.6236 4.53272 36.9333 4.63038C37.1245 4.69129 37.3124 4.77004 37.4752 4.85615C37.6379 4.94226 37.8396 4.86035 37.9015 4.68603L38.8802 1.97786C38.9306 1.83714 38.8739 1.67963 38.7447 1.60507C38.3625 1.38351 37.9141 1.21654 37.3975 1.10313C36.7979 0.96767 36.1689 0.899414 35.5105 0.899414C33.5762 0.899414 32.0861 1.43391 31.0402 2.5029C29.9954 3.55194 29.4725 4.96116 29.4725 6.72951V7.07289H27.4269C27.2263 7.07289 27.0625 7.21045 27.0625 7.38056V10.262C27.0625 10.4321 27.2253 10.5697 27.4269 10.5697H29.4725V22.4514C29.4725 22.6216 29.61 22.7591 29.7791 22.7591H33.6928C33.8618 22.7591 33.9994 22.6216 33.9994 22.4514V10.5697H38.2396V15.9388C38.2396 17.5517 38.52 18.8832 39.0818 19.9323C39.6436 20.9624 40.427 21.73 41.433 22.2351C42.4589 22.7402 43.6203 22.9933 44.9161 22.9933C46.1164 22.9933 47.219 22.7213 48.2249 22.1763C48.8235 21.8476 49.3359 21.4276 49.7633 20.9194V22.4514C49.7633 22.6216 49.9009 22.7591 50.0699 22.7591H53.7526C53.9227 22.7591 54.0592 22.6216 54.0592 22.4514V7.38686C54.0592 7.21675 53.9217 7.07919 53.7526 7.07919V7.07814Z" fill="#010101"/>
<path d="M66.9298 14.5391C66.388 14.2083 65.7779 13.9563 65.1006 13.7809C64.4243 13.6066 63.746 13.4795 63.0687 13.4018C62.4113 13.3042 61.8012 13.1981 61.2394 13.0815C60.6787 12.965 60.2229 12.8096 59.8753 12.6153C59.5456 12.421 59.3818 12.1302 59.3818 11.7406C59.3818 11.3132 59.6139 10.9635 60.0791 10.6915C60.5432 10.4196 61.2793 10.2841 62.2853 10.2841C63.0014 10.2841 63.7365 10.3713 64.4915 10.5466C65.1688 10.6821 65.8377 10.9299 66.5003 11.289C66.6568 11.3731 66.85 11.3111 66.9256 11.1504L68.1752 8.47271C68.2435 8.32674 68.1878 8.15033 68.0471 8.07367C67.3562 7.69669 66.5203 7.40372 65.5374 7.19685C64.4348 6.96373 63.3511 6.84717 62.2863 6.84717C60.7774 6.84717 59.4805 7.07084 58.3968 7.51712C57.3131 7.94556 56.4814 8.53781 55.9007 9.29598C55.34 10.0541 55.0586 10.9278 55.0586 11.9191C55.0586 12.8127 55.2234 13.5415 55.5521 14.1054C55.9007 14.6682 56.3554 15.1156 56.9162 15.4463C57.478 15.7771 58.0965 16.0291 58.7738 16.2045C59.4511 16.3599 60.1189 16.4859 60.7763 16.5836C61.4536 16.6813 62.0732 16.7779 62.6339 16.8745C63.1947 16.9721 63.6399 17.1181 63.9696 17.3124C64.3183 17.4877 64.4926 17.7597 64.4926 18.1283C64.4926 18.5756 64.27 18.9253 63.8247 19.1773C63.3994 19.4293 62.6633 19.5564 61.6185 19.5564C60.6702 19.5564 59.7031 19.4209 58.716 19.149C57.8749 18.8959 57.1293 18.584 56.4783 18.2133C56.3218 18.1241 56.1234 18.1871 56.0478 18.3509L54.794 21.0633C54.7278 21.2061 54.7813 21.3751 54.9147 21.4571C55.6025 21.8771 56.4919 22.2352 57.583 22.5302C58.821 22.8411 60.1085 22.9965 61.4431 22.9965V22.9944C63.0098 22.9944 64.3361 22.7812 65.4198 22.3538C66.5224 21.9264 67.3646 21.3436 67.9453 20.6054C68.526 19.8483 68.8158 18.983 68.8158 18.0117C68.8158 17.1181 68.6415 16.3988 68.2928 15.8548C67.9442 15.2909 67.4895 14.8541 66.9288 14.5433L66.9298 14.5391Z" fill="#010101"/>
<path d="M84.501 10.636C83.7848 9.41156 82.8082 8.47908 81.5691 7.83748C80.35 7.17697 79.0342 6.84619 77.4475 6.84619C75.8609 6.84619 74.438 7.19587 73.181 7.89523C71.923 8.57464 70.9265 9.52707 70.1914 10.7515C69.4753 11.9559 69.1172 13.3651 69.1172 14.9193C69.1172 16.4734 69.4847 17.8637 70.2198 19.0871C70.9548 20.2915 71.9902 21.244 73.3249 21.9433C74.6795 22.6427 76.2462 22.9924 78.0272 22.9924V22.9945C79.4406 22.9945 80.6892 22.7802 81.7718 22.3539C82.7599 21.9465 83.5948 21.3847 84.2773 20.6706C84.3886 20.5541 84.3886 20.3692 84.2794 20.2495L82.2685 18.0601C82.1551 17.9372 81.9661 17.9288 81.839 18.0391C81.3759 18.4434 80.8698 18.7542 80.3195 18.9716C79.7 19.2236 78.9744 19.3507 78.1427 19.3507C77.2144 19.3507 76.4017 19.1858 75.7044 18.855C75.0271 18.5053 74.4947 18.0097 74.1083 17.3691C73.9077 17.01 73.7649 16.6204 73.6735 16.2025H85.2087C85.3663 16.2025 85.4986 16.0817 85.5133 15.9242C85.5238 15.8161 85.5343 15.7037 85.5437 15.5903C85.5637 15.3572 85.5731 15.1534 85.5731 14.9781C85.5731 13.2874 85.2151 11.8404 84.4989 10.6349L84.501 10.636ZM75.4156 10.8113C76.0152 10.4616 76.703 10.2863 77.477 10.2863C78.2509 10.2863 78.9282 10.4616 79.5089 10.8113C80.0896 11.1411 80.5443 11.6083 80.8729 12.21C81.0914 12.6091 81.2352 13.0564 81.3087 13.55H73.621C73.6966 13.0648 73.8394 12.6269 74.0516 12.2384C74.3813 11.6167 74.8349 11.1411 75.4156 10.8103V10.8113Z" fill="#010101"/>
</g>
<defs>
<clipPath id="clip0_8076_19816">
<rect width="85.5707" height="24.2014" fill="white" transform="translate(0 0.899414)"/>
</clipPath>
</defs>
</svg>
