<svg width="52" height="91" viewBox="0 0 52 91" fill="none" xmlns="http://www.w3.org/2000/svg">
<path d="M51 54.2152L25.8212 68.5011V90.287L51 54.2152Z" fill="#1A1A1A"/>
<path d="M25.8212 68.5011L1 54.2152L25.8212 90.287V68.5011Z" fill="#B4F9BA"/>
<path d="M1 54.2152L25.8212 68.5011L51 54.2152L45.9512 51.9594L25.8212 42.9651L6.0711 51.9168L1 54.2152Z" fill="white"/>
<path d="M1 54.2152L25.8212 68.5011M1 54.2152L25.8212 90.287M1 54.2152L6.0711 51.9168L25.8212 42.9651L45.9512 51.9594L51 54.2152M25.8212 68.5011L51 54.2152M25.8212 68.5011V90.287M51 54.2152L25.8212 90.287" stroke="#1A1A1A" stroke-width="0.0994892" stroke-linecap="round" stroke-linejoin="round"/>
<path d="M2.25037 49.5725L25.8209 38.501L49.9295 49.5725L25.8209 62.7959L2.25037 49.5725Z" fill="white" stroke="#1A1A1A" stroke-width="0.0994892" stroke-linecap="round" stroke-linejoin="round"/>
<path d="M51 42.7862L25.8212 1V57.4291L51 42.7862Z" fill="#1A1A1A"/>
<path d="M1 42.7862L25.8212 57.4291V1L1 42.7862Z" fill="#B4F9BA"/>
<path d="M25.8212 1L51 42.7862L25.8212 57.4291M25.8212 1L1 42.7862L25.8212 57.4291M25.8212 1V57.4291" stroke="#1A1A1A" stroke-width="0.0994892" stroke-linecap="round" stroke-linejoin="round"/>
</svg>
