<svg width="98" height="75" viewBox="0 0 98 75" fill="none" xmlns="http://www.w3.org/2000/svg">
<path d="M41.7198 17.227C38.8862 15.591 34.2921 15.591 31.4585 17.227L3.23995 33.5189C1.75647 34.3754 1.04965 35.5105 1.11948 36.6325C1.18304 37.6536 1.88985 38.6638 3.23995 39.4433L56.2566 70.0524C59.0902 71.6884 63.6843 71.6884 66.5179 70.0524L94.7364 53.7605C96.1597 52.9387 96.868 51.8606 96.8615 50.7836C96.8551 49.7164 96.1467 48.6503 94.7364 47.8361L41.7198 17.227Z" fill="#D9D9D9"/>
<path d="M28.8931 23.6451C27.9486 23.0998 27.5631 23.3431 26.6186 23.8885L13.5012 31.3524C12.5567 31.8977 12.5567 31.9863 13.5012 32.5317C14.4457 33.077 14.9913 32.6908 15.9358 32.1454L28.4846 25.008C29.4291 24.4627 29.8377 24.1905 28.8931 23.6451Z" fill="#1A1A1A"/>
<path d="M41.7198 17.227C38.8862 15.591 34.2921 15.591 31.4585 17.227L3.23995 33.5189C1.75647 34.3754 1.04965 35.5105 1.11948 36.6325C1.18304 37.6536 1.88985 38.6638 3.23995 39.4433L56.2566 70.0524C59.0902 71.6884 63.6843 71.6884 66.5179 70.0524L94.7364 53.7605C96.1597 52.9387 96.868 51.8606 96.8615 50.7836C96.8551 49.7164 96.1467 48.6503 94.7364 47.8361L41.7198 17.227Z" fill="#D9D9D9"/>
<path d="M28.8931 23.6451C27.9486 23.0998 27.5631 23.3431 26.6186 23.8885L13.5012 31.3524C12.5567 31.8977 12.5567 31.9863 13.5012 32.5317C14.4457 33.077 14.9913 32.6908 15.9358 32.1454L28.4846 25.008C29.4291 24.4627 29.8377 24.1905 28.8931 23.6451Z" fill="#1A1A1A"/>
<path d="M3.23995 39.4433L56.2566 70.0524C59.0902 71.6884 63.6843 71.6884 66.5179 70.0524L94.7364 53.7605C96.1597 52.9387 96.868 51.8606 96.8615 50.7836C97.0442 53.4256 97.471 55.5568 94.7364 57.1356L66.5179 73.4276C63.6843 75.0636 59.0902 75.0636 56.2566 73.4276L3.23995 42.8185C0.747353 41.3794 0.884514 38.7709 1.11948 36.6325C1.18304 37.6536 1.88985 38.6638 3.23995 39.4433Z" fill="#1A1A1A"/>
<path d="M96.8428 50.4948C96.8486 50.5917 96.8549 50.688 96.8615 50.7836M1.21492 35.7855C1.1856 36.0562 1.15162 36.34 1.11948 36.6325M96.8615 50.7836C96.868 51.8606 96.1597 52.9387 94.7364 53.7605L66.5179 70.0524C63.6843 71.6884 59.0902 71.6884 56.2566 70.0524L3.23995 39.4433C1.88985 38.6638 1.18303 37.6536 1.11948 36.6325M96.8615 50.7836C97.0442 53.4256 97.471 55.5568 94.7364 57.1356L66.5179 73.4276C63.6843 75.0636 59.0902 75.0636 56.2566 73.4276L3.23995 42.8185C0.747349 41.3794 0.884516 38.7709 1.11948 36.6325M96.8615 50.7836C96.8551 49.7164 96.1467 48.6503 94.7364 47.8361L41.7198 17.227C38.8862 15.591 34.2921 15.591 31.4585 17.227L3.23995 33.5189C1.75647 34.3754 1.04965 35.5105 1.11948 36.6325M28.4846 25.008L15.9358 32.1454C14.9913 32.6908 14.4457 33.077 13.5012 32.5317C12.5567 31.9863 12.5567 31.8977 13.5012 31.3524L26.6186 23.8885C27.5631 23.3431 27.9486 23.0998 28.8931 23.6451C29.8377 24.1905 29.4291 24.4627 28.4846 25.008Z" stroke="#1A1A1A" stroke-width="0.112047"/>
<path d="M30.0001 16.3519C29.9708 26.2579 36.9645 38.368 45.5844 43.3452C54.207 48.3224 61.2434 44.3133 61.273 34.4072C61.2996 24.4981 54.3086 12.3881 45.6861 7.41123C37.0661 2.434 30.0267 6.44579 30.0001 16.3519Z" fill="white" stroke="#1B1B1B" stroke-width="0.737549" stroke-miterlimit="10"/>
<path d="M41.9154 2.058C44.7603 0.404671 48.6979 0.633467 53.0363 3.13821C61.6578 8.11582 68.6496 20.2262 68.6214 30.1327C68.6075 35.054 66.8638 38.5204 64.0553 40.1524L56.7038 44.4245C59.5124 42.7925 61.2561 39.3261 61.27 34.4048C61.2981 24.4979 54.3063 12.3879 45.6849 7.4103C41.3464 4.90556 37.4089 4.67676 34.5639 6.33009L41.9154 2.058Z" fill="#1B1B1B" stroke="#1B1B1B" stroke-width="0.737549" stroke-miterlimit="10"/>
<path d="M56.5989 32.0857C56.5783 39.4473 51.3498 42.4268 44.9428 38.7279C38.5357 35.0289 33.3398 26.0305 33.3608 18.6689C33.3815 11.3073 38.6119 8.32812 45.0185 12.0275C51.4255 15.7265 56.6199 24.7241 56.5989 32.0857Z" fill="white" stroke="#1B1B1B" stroke-width="0.737549" stroke-miterlimit="10"/>
<path d="M44.0314 28.5443C43.7782 28.398 43.5179 28.2307 43.2482 28.0391C43.2441 26.9758 43.2377 25.9327 43.2636 24.8873C43.5971 25.0715 43.9192 25.2429 44.2343 25.4248C44.7302 25.711 45.2076 26.0231 45.6791 26.4503C46.0249 26.7635 46.3475 27.1123 46.5744 27.5819C46.9798 28.4213 46.8527 29.2449 46.2623 29.2907C45.9503 29.3147 45.5853 29.2337 45.2301 29.1054C44.8393 28.9648 44.444 28.7825 44.031 28.5439M43.8247 23.7287C43.6447 23.6248 43.462 23.5142 43.2767 23.4017L43.285 20.4843C43.5329 20.613 43.779 20.7413 44.022 20.8815C44.5801 21.2037 45.1229 21.5889 45.6405 22.1849C46.0384 22.6425 46.2319 23.1624 46.2196 23.6676C46.2083 24.1593 45.99 24.4001 45.6014 24.3877C45.0385 24.3694 44.4477 24.0884 43.8247 23.7287ZM43.2141 16.3829L41.9456 15.6504L41.9389 18.0426L39.4341 16.5963L39.4296 18.1439C39.6314 18.2602 39.8193 18.361 40.0012 18.4664C40.1111 18.5298 40.2191 18.5951 40.3264 18.666C40.8181 18.9897 41.0435 19.3929 41.0435 19.9499C41.0435 21.9906 41.0375 24.028 41.0282 26.0636C41.0252 26.6048 40.883 26.6802 40.4145 26.4229C40.3212 26.3715 40.2278 26.3182 40.1332 26.2635C39.9678 26.1682 39.7994 26.0684 39.622 25.9661C39.5316 26.5305 39.4514 27.0279 39.358 27.6096L41.928 29.0934L41.9212 31.4841L43.1968 32.2208L43.2036 29.8709L44.2084 30.4512L44.2017 32.7856L45.4923 33.5309L45.4991 31.1672C45.9371 31.3514 46.3396 31.5325 46.7387 31.6867C48.2671 32.2793 49.0784 31.8967 49.2914 30.4722C49.3327 30.2003 49.3327 29.8935 49.3237 29.5866C49.2933 28.5492 48.8788 27.5837 48.0518 26.7102C47.9037 26.5538 47.7536 26.4 47.5635 26.2038C47.985 26.1435 48.2934 25.9792 48.458 25.5891C48.8106 24.7523 48.6666 23.0022 47.2634 21.5503C47.0211 21.2994 46.7679 21.065 46.514 20.8489C46.1971 20.5804 45.8738 20.3388 45.4987 20.0421L45.5054 17.7077L44.2309 16.9718L44.2246 19.2335L43.2077 18.6465L43.2141 16.3829Z" fill="black"/>
</svg>
