<svg width="52" height="91" viewBox="0 0 52 91" fill="none" xmlns="http://www.w3.org/2000/svg">
<path d="M51 54.215L25.8212 68.5008V90.2868L51 54.215Z" fill="#1A1A1A"/>
<path d="M25.8212 68.5008L1 54.215L25.8212 90.2868V68.5008Z" fill="#D9D9D9"/>
<path d="M1 54.215L25.8212 68.5008L51 54.215L45.9512 51.9591L25.8212 42.9648L6.0711 51.9165L1 54.215Z" fill="white"/>
<path d="M1 54.215L25.8212 68.5008M1 54.215L25.8212 90.2868M1 54.215L6.0711 51.9165L25.8212 42.9648L45.9512 51.9591L51 54.215M25.8212 68.5008L51 54.215M25.8212 68.5008V90.2868M51 54.215L25.8212 90.2868" stroke="#1A1A1A" stroke-width="0.0994892" stroke-linecap="round" stroke-linejoin="round"/>
<path d="M2.25031 49.5725L25.8208 38.501L49.9294 49.5725L25.8208 62.7959L2.25031 49.5725Z" fill="white" stroke="#1A1A1A" stroke-width="0.0994892" stroke-linecap="round" stroke-linejoin="round"/>
<path d="M51 42.7862L25.8212 1V57.4291L51 42.7862Z" fill="#1A1A1A"/>
<path d="M1 42.7862L25.8212 57.4291V1L1 42.7862Z" fill="#D9D9D9"/>
<path d="M25.8212 1L51 42.7862L25.8212 57.4291M25.8212 1L1 42.7862L25.8212 57.4291M25.8212 1V57.4291" stroke="#1A1A1A" stroke-width="0.0994892" stroke-linecap="round" stroke-linejoin="round"/>
</svg>
