<svg width="210" height="71" viewBox="0 0 210 71" fill="none" xmlns="http://www.w3.org/2000/svg">
<path d="M79 51.8649L39.7211 1.55811V69.4936L79 51.8649Z" fill="#1A1A1A"/>
<path d="M1 51.8649L39.7211 69.4936V1.55811L1 51.8649Z" fill="#B4F9BA"/>
<path d="M39.7211 1.55811L79 51.8649L39.7211 69.4936M39.7211 1.55811L1 51.8649L39.7211 69.4936M39.7211 1.55811V69.4936" stroke="#1A1A1A" stroke-width="0.164949" stroke-linecap="round" stroke-linejoin="round"/>
<path d="M89 53.4248L89 17.5041L117.983 34.1214L117.983 70.0517L89 53.4248Z" fill="#B4F9BA"/>
<path d="M146.768 53.4755L117.983 70.0517L117.983 34.1214L146.768 17.6562L146.768 53.4755Z" fill="#1A1A1A"/>
<path d="M89 17.5041L117.64 1L146.768 17.6562L117.983 34.1214L89 17.5041Z" fill="white"/>
<path d="M89 17.5041L117.64 1L146.768 17.6562M89 17.5041L89 53.4248L117.983 70.0517M89 17.5041L117.983 34.1214M117.983 70.0517L146.768 53.4755L146.768 17.6562M117.983 70.0517L117.983 34.1214M146.768 17.6562L117.983 34.1214" stroke="black" stroke-width="0.168421"/>
<path d="M156.768 26.0706C156.728 39.6641 166.325 56.2826 178.154 63.1119C189.986 69.942 199.642 64.4405 199.682 50.847C199.719 37.2498 190.126 20.6314 178.293 13.8013C166.465 6.97125 156.805 12.4763 156.768 26.0706Z" fill="#B4F9BA" stroke="#1B1B1B" stroke-width="0.313857" stroke-miterlimit="10"/>
<path d="M173.12 6.45703C177.024 4.1886 182.427 4.50233 188.381 7.93933C200.212 14.7701 209.806 31.3878 209.768 44.9828C209.749 51.7364 207.356 56.4928 203.501 58.7329L193.413 64.5956C197.268 62.3562 199.661 57.5991 199.68 50.8455C199.718 37.2512 190.124 20.6328 178.293 13.802C172.34 10.365 166.937 10.0505 163.032 12.3197L173.12 6.45703Z" fill="#1B1B1B" stroke="#1B1B1B" stroke-width="0.313857" stroke-miterlimit="10"/>
</svg>
