<svg width="87" height="75" viewBox="0 0 87 75" fill="none" xmlns="http://www.w3.org/2000/svg">
<path d="M68.6143 74.4541L49.7637 74.4541L41.1014 59.7029L59.9438 59.7029L68.6143 74.4541Z" fill="#1A1A1A"/>
<path d="M68.6143 44.9448L49.7637 44.9448L41.1685 30.2896L59.9149 30.2896L68.6143 44.9448Z" fill="#1A1A1A"/>
<path d="M77.3324 30.0857L85.9912 44.7688L77.2527 59.7029L68.6143 74.4541L59.9438 59.7029L68.6143 44.9448L59.9149 30.2896L68.7031 15.507L77.3324 30.0857Z" fill="white"/>
<path d="M68.7031 15.507L59.9149 30.2896L41.1685 30.2896L49.7637 15.507L68.7031 15.507Z" fill="#B4F9BA"/>
<path d="M49.7637 44.9448L68.6143 44.9448L59.9438 59.7029L41.1014 59.7029L49.7637 44.9448Z" fill="#B4F9BA"/>
<path d="M49.7637 44.9448L68.6143 44.9448M49.7637 44.9448L41.1014 59.7029M49.7637 44.9448L41.1685 30.2896M68.6143 44.9448L59.9438 59.7029M68.6143 44.9448L59.9149 30.2896M59.9438 59.7029L68.6143 74.4541M59.9438 59.7029L41.1014 59.7029M41.1014 59.7029L49.7637 74.4541L68.6143 74.4541M68.6143 74.4541L77.2527 59.7029L85.9912 44.7688L77.3324 30.0857L68.7031 15.507M68.7031 15.507L59.9149 30.2896M68.7031 15.507L49.7637 15.507L41.1685 30.2896M59.9149 30.2896L41.1685 30.2896" stroke="#1A1A1A" stroke-width="0.651421"/>
<path d="M17.8611 0.999869L36.2773 0.99987L19.4212 30.6314L1.00006 30.6314L17.8611 0.999869Z" fill="#B4F9BA"/>
<path d="M9.49854 45.3895L1.00006 30.6314L19.4212 30.6314L27.8628 45.3895L36.3008 59.6797L17.8943 59.6797L9.49854 45.3895Z" fill="#1A1A1A"/>
<path d="M36.2773 0.99987L44.7388 15.6831L36.3008 30.5363L44.7388 44.936L36.3008 59.6797L27.8628 45.3895L19.4212 30.6314L36.2773 0.99987Z" fill="white"/>
<path d="M36.2773 0.999871L44.7388 15.6831L36.3008 30.5363L44.7388 44.936L36.3008 59.6797M36.2773 0.999871L17.8611 0.99987L1.00006 30.6314M36.2773 0.999871L19.4212 30.6314M1.00006 30.6314L9.49854 45.3895L17.8943 59.6797L36.3008 59.6797M1.00006 30.6314L19.4212 30.6314M19.4212 30.6314L27.8628 45.3895L36.3008 59.6797" stroke="#1A1A1A" stroke-width="0.651421"/>
</svg>
