<svg width="94" height="77" viewBox="0 0 94 77" fill="none" xmlns="http://www.w3.org/2000/svg">
<path d="M20.8978 47.4825V15.6334L46.5954 30.3672L46.5953 62.2249L20.8978 47.4825Z" fill="#B4F9BA"/>
<path d="M72.1182 47.5275L46.5953 62.2249L46.5954 30.3672L72.1182 15.7682V47.5275Z" fill="#1A1A1A"/>
<path d="M20.8978 15.6334L46.2911 1L72.1182 15.7682L46.5954 30.3672L20.8978 15.6334Z" fill="white"/>
<path d="M20.8978 15.6334L46.2911 1L72.1182 15.7682M20.8978 15.6334V47.4825L46.5953 62.2249M20.8978 15.6334L46.5954 30.3672M46.5953 62.2249L72.1182 47.5275V15.7682M46.5953 62.2249L46.5954 30.3672M72.1182 15.7682L46.5954 30.3672" stroke="#1A1A1A" stroke-width="0.694566"/>
<path d="M81.7543 53.0835L56.2314 67.7808L56.2315 35.9232L81.7543 21.3242V53.0835Z" fill="white" stroke="#1A1A1A" stroke-width="0.694566"/>
<path d="M92.8672 60.0298L67.3443 74.7271L67.3444 42.8694L92.8672 28.2705V60.0298Z" fill="white" stroke="#1A1A1A" stroke-width="0.694566"/>
<path d="M12.1592 54.4235L37.7779 69.176L37.7778 37.1987L12.1592 22.5449V54.4235Z" fill="white" stroke="#1A1A1A" stroke-width="0.694566"/>
<path d="M1 61.3952L26.6187 76.1477L26.6186 44.1704L1 29.5166V61.3952Z" fill="white" stroke="#1A1A1A" stroke-width="0.694566"/>
</svg>
