<svg width="153" height="26" viewBox="0 0 153 26" fill="none" xmlns="http://www.w3.org/2000/svg">
<g clip-path="url(#clip0_7115_1964)">
<path d="M6.48848 3.25261L10.3234 1.03798C10.4326 0.974971 10.5681 0.974971 10.6773 1.03798L20.7844 6.87332C20.8936 6.93633 20.9608 7.05289 20.9619 7.1789L20.9755 11.1923C20.9755 11.3194 20.9083 11.437 20.798 11.5L16.9684 13.7115C16.7331 13.848 16.4381 13.6779 16.437 13.4059L16.4244 9.80412C16.4244 9.67811 16.3562 9.56155 16.247 9.49854L6.48848 3.86587C6.25221 3.72935 6.25221 3.38913 6.48848 3.25261Z" fill="#010101"/>
<path d="M4.01134 21.4316L0.177465 19.218C0.0672057 19.155 0 19.0384 0 18.9114V7.24069C0 7.11468 0.0672057 6.99812 0.176415 6.93406L3.64591 4.91474C3.75617 4.85069 3.89163 4.85069 4.00084 4.91474L7.83051 7.12623C8.06573 7.26274 8.06678 7.60192 7.83156 7.73948L4.7191 9.55088C4.60989 9.61389 4.54269 9.73045 4.54269 9.85751V21.126C4.54269 21.399 4.24761 21.5692 4.01134 21.4326V21.4316Z" fill="#010101"/>
<path d="M20.9756 14.4832V18.9104C20.9756 19.0375 20.9084 19.154 20.7982 19.217L10.6911 25.0524C10.5819 25.1154 10.4474 25.1154 10.3382 25.0524L6.85509 23.0572C6.74483 22.9942 6.67657 22.8766 6.67657 22.7495V18.3276C6.67657 18.0556 6.9706 17.8855 7.20687 18.0199L10.3319 19.8103C10.4411 19.8733 10.5756 19.8723 10.6848 19.8103L20.4432 14.1756C20.6795 14.0391 20.9746 14.2092 20.9746 14.4822L20.9756 14.4832Z" fill="#010101"/>
<path d="M53.7508 7.07814H49.8361C49.666 7.07814 49.5295 7.2157 49.5295 7.38581V14.832C49.5295 15.7844 49.3751 16.5814 49.0653 17.222C48.7556 17.8436 48.3303 18.3099 47.7884 18.6207C47.2466 18.9116 46.627 19.0586 45.9308 19.0586C44.9238 19.0586 44.1404 18.7572 43.5797 18.1555C43.0378 17.5339 42.7669 16.5709 42.7669 15.2699V7.38686C42.7669 7.21675 42.6293 7.07919 42.4603 7.07919H39.6166C39.5935 7.07499 39.5704 7.07289 39.5473 7.07289H33.8832V6.75786C33.8832 5.9997 34.0575 5.43685 34.4061 5.06722C34.7736 4.67868 35.2871 4.48442 35.9445 4.48442C36.2931 4.48442 36.6218 4.53272 36.9316 4.63038C37.1227 4.69129 37.3106 4.77004 37.4734 4.85615C37.6362 4.94226 37.8378 4.86035 37.8997 4.68603L38.8784 1.97786C38.9288 1.83714 38.8721 1.67963 38.743 1.60507C38.3607 1.38351 37.9123 1.21654 37.3957 1.10313C36.7961 0.96767 36.1671 0.899414 35.5087 0.899414C33.5744 0.899414 32.0844 1.43391 31.0385 2.5029C29.9936 3.55194 29.4707 4.96116 29.4707 6.72951V7.07289H27.4251C27.2245 7.07289 27.0607 7.21045 27.0607 7.38056V10.262C27.0607 10.4321 27.2235 10.5697 27.4251 10.5697H29.4707V22.4514C29.4707 22.6216 29.6082 22.7591 29.7773 22.7591H33.691C33.8601 22.7591 33.9976 22.6216 33.9976 22.4514V10.5697H38.2379V15.9388C38.2379 17.5517 38.5183 18.8832 39.08 19.9323C39.6418 20.9624 40.4252 21.73 41.4312 22.2351C42.4571 22.7402 43.6185 22.9933 44.9143 22.9933C46.1146 22.9933 47.2172 22.7213 48.2232 22.1763C48.8217 21.8476 49.3342 21.4276 49.7616 20.9194V22.4514C49.7616 22.6216 49.8991 22.7591 50.0682 22.7591H53.7508C53.921 22.7591 54.0575 22.6216 54.0575 22.4514V7.38686C54.0575 7.21675 53.9199 7.07919 53.7508 7.07919V7.07814Z" fill="#010101"/>
<path d="M66.9316 14.5391C66.3898 14.2083 65.7796 13.9563 65.1023 13.7809C64.4261 13.6066 63.7477 13.4795 63.0704 13.4018C62.4131 13.3042 61.803 13.1981 61.2412 13.0815C60.6804 12.965 60.2247 12.8096 59.8771 12.6153C59.5474 12.421 59.3836 12.1302 59.3836 11.7406C59.3836 11.3132 59.6156 10.9635 60.0808 10.6915C60.545 10.4196 61.2811 10.2841 62.2871 10.2841C63.0032 10.2841 63.7383 10.3713 64.4933 10.5466C65.1706 10.6821 65.8395 10.9299 66.5021 11.289C66.6586 11.3731 66.8518 11.3111 66.9274 11.1504L68.177 8.47271C68.2453 8.32674 68.1896 8.15033 68.0489 8.07367C67.3579 7.69669 66.5221 7.40372 65.5392 7.19685C64.4366 6.96373 63.3529 6.84717 62.2881 6.84717C60.7791 6.84717 59.4823 7.07084 58.3986 7.51712C57.3149 7.94556 56.4832 8.53781 55.9025 9.29598C55.3418 10.0541 55.0603 10.9278 55.0603 11.9191C55.0603 12.8127 55.2252 13.5415 55.5539 14.1054C55.9025 14.6682 56.3572 15.1156 56.918 15.4463C57.4798 15.7771 58.0982 16.0291 58.7756 16.2045C59.4529 16.3599 60.1207 16.4859 60.7781 16.5836C61.4554 16.6813 62.0749 16.7779 62.6357 16.8745C63.1964 16.9721 63.6417 17.1181 63.9714 17.3124C64.32 17.4877 64.4943 17.7597 64.4943 18.1283C64.4943 18.5756 64.2717 18.9253 63.8265 19.1773C63.4012 19.4293 62.6651 19.5564 61.6202 19.5564C60.672 19.5564 59.7049 19.4209 58.7178 19.149C57.8767 18.8959 57.1311 18.584 56.4801 18.2133C56.3236 18.1241 56.1251 18.1871 56.0495 18.3509L54.7957 21.0633C54.7296 21.2061 54.7831 21.3751 54.9165 21.4571C55.6043 21.8771 56.4937 22.2352 57.5848 22.5302C58.8228 22.8411 60.1102 22.9965 61.4449 22.9965V22.9944C63.0116 22.9944 64.3379 22.7812 65.4216 22.3538C66.5242 21.9264 67.3663 21.3436 67.947 20.6054C68.5277 19.8483 68.8176 18.983 68.8176 18.0117C68.8176 17.1181 68.6432 16.3988 68.2946 15.8548C67.946 15.2909 67.4913 14.8541 66.9305 14.5433L66.9316 14.5391Z" fill="#010101"/>
<path d="M84.4975 10.636C83.7814 9.41156 82.8048 8.47908 81.5657 7.83748C80.3465 7.17697 79.0308 6.84619 77.4441 6.84619C75.8574 6.84619 74.4345 7.19587 73.1776 7.89523C71.9195 8.57464 70.923 9.52707 70.188 10.7515C69.4718 11.9559 69.1137 13.3651 69.1137 14.9193C69.1137 16.4734 69.4812 17.8637 70.2163 19.0871C70.9514 20.2915 71.9868 21.244 73.3214 21.9433C74.676 22.6427 76.2428 22.9924 78.0237 22.9924V22.9945C79.4371 22.9945 80.6857 22.7802 81.7683 22.3539C82.7565 21.9465 83.5913 21.3847 84.2738 20.6706C84.3852 20.5541 84.3852 20.3692 84.2759 20.2495L82.265 18.0601C82.1516 17.9372 81.9626 17.9288 81.8355 18.0391C81.3724 18.4434 80.8663 18.7542 80.3161 18.9716C79.6965 19.2236 78.9709 19.3507 78.1392 19.3507C77.2109 19.3507 76.3982 19.1858 75.7009 18.855C75.0236 18.5053 74.4912 18.0097 74.1048 17.3691C73.9042 17.01 73.7614 16.6204 73.67 16.2025H85.2053C85.3628 16.2025 85.4951 16.0817 85.5098 15.9242C85.5203 15.8161 85.5308 15.7037 85.5402 15.5903C85.5602 15.3572 85.5697 15.1534 85.5697 14.9781C85.5697 13.2874 85.2116 11.8404 84.4954 10.6349L84.4975 10.636ZM75.4121 10.8113C76.0117 10.4616 76.6996 10.2863 77.4735 10.2863C78.2474 10.2863 78.9247 10.4616 79.5054 10.8113C80.0861 11.1411 80.5408 11.6083 80.8695 12.21C81.0879 12.6091 81.2317 13.0564 81.3052 13.55H73.6175C73.6931 13.0648 73.836 12.6269 74.0481 12.2384C74.3778 11.6167 74.8314 11.1411 75.4121 10.8103V10.8113Z" fill="#010101"/>
</g>
<path d="M88.6895 22.2446C88.2415 22.2446 87.8575 22.0926 87.5375 21.7886C87.2175 21.4686 87.0575 21.0686 87.0575 20.5886C87.0575 20.1086 87.2175 19.7166 87.5375 19.4126C87.8575 19.1086 88.2415 18.9566 88.6895 18.9566C89.1215 18.9566 89.4895 19.1086 89.7935 19.4126C90.1135 19.7166 90.2735 20.1086 90.2735 20.5886C90.2735 21.0686 90.1135 21.4686 89.7935 21.7886C89.4895 22.0926 89.1215 22.2446 88.6895 22.2446ZM93.911 22.1006V5.30058H100.991C102.783 5.30058 104.359 5.65259 105.719 6.35659C107.095 7.06059 108.159 8.04458 108.911 9.30858C109.679 10.5726 110.063 12.0366 110.063 13.7006C110.063 15.3646 109.679 16.8286 108.911 18.0926C108.159 19.3566 107.095 20.3406 105.719 21.0446C104.359 21.7486 102.783 22.1006 100.991 22.1006H93.911ZM96.311 20.0126H100.847C102.239 20.0126 103.439 19.7486 104.447 19.2206C105.471 18.6926 106.263 17.9566 106.823 17.0126C107.383 16.0526 107.663 14.9486 107.663 13.7006C107.663 12.4366 107.383 11.3326 106.823 10.3886C106.263 9.44458 105.471 8.70858 104.447 8.18058C103.439 7.65259 102.239 7.38859 100.847 7.38859H96.311V20.0126ZM118.851 22.2446C117.571 22.2446 116.435 21.9646 115.443 21.4046C114.451 20.8446 113.667 20.0766 113.091 19.1006C112.515 18.1086 112.227 16.9886 112.227 15.7406C112.227 14.4766 112.515 13.3566 113.091 12.3806C113.667 11.4046 114.451 10.6446 115.443 10.1006C116.435 9.54059 117.571 9.26059 118.851 9.26059C120.115 9.26059 121.243 9.54059 122.235 10.1006C123.243 10.6446 124.027 11.4046 124.587 12.3806C125.163 13.3406 125.451 14.4606 125.451 15.7406C125.451 17.0046 125.163 18.1246 124.587 19.1006C124.027 20.0766 123.243 20.8446 122.235 21.4046C121.243 21.9646 120.115 22.2446 118.851 22.2446ZM118.851 20.2286C119.667 20.2286 120.395 20.0446 121.035 19.6766C121.691 19.3086 122.203 18.7886 122.571 18.1166C122.939 17.4286 123.123 16.6366 123.123 15.7406C123.123 14.8286 122.939 14.0446 122.571 13.3886C122.203 12.7166 121.691 12.1966 121.035 11.8286C120.395 11.4606 119.667 11.2766 118.851 11.2766C118.035 11.2766 117.307 11.4606 116.667 11.8286C116.027 12.1966 115.515 12.7166 115.131 13.3886C114.747 14.0446 114.555 14.8286 114.555 15.7406C114.555 16.6366 114.747 17.4286 115.131 18.1166C115.515 18.7886 116.027 19.3086 116.667 19.6766C117.307 20.0446 118.035 20.2286 118.851 20.2286ZM134.182 22.2446C132.886 22.2446 131.726 21.9646 130.702 21.4046C129.694 20.8446 128.902 20.0766 128.326 19.1006C127.75 18.1246 127.462 17.0046 127.462 15.7406C127.462 14.4766 127.75 13.3566 128.326 12.3806C128.902 11.4046 129.694 10.6446 130.702 10.1006C131.726 9.54059 132.886 9.26059 134.182 9.26059C135.334 9.26059 136.358 9.49259 137.254 9.95658C138.166 10.4046 138.87 11.0766 139.366 11.9726L137.614 13.1006C137.198 12.4766 136.686 12.0206 136.078 11.7326C135.486 11.4286 134.846 11.2766 134.158 11.2766C133.326 11.2766 132.582 11.4606 131.926 11.8286C131.27 12.1966 130.75 12.7166 130.366 13.3886C129.982 14.0446 129.79 14.8286 129.79 15.7406C129.79 16.6526 129.982 17.4446 130.366 18.1166C130.75 18.7886 131.27 19.3086 131.926 19.6766C132.582 20.0446 133.326 20.2286 134.158 20.2286C134.846 20.2286 135.486 20.0846 136.078 19.7966C136.686 19.4926 137.198 19.0286 137.614 18.4046L139.366 19.5086C138.87 20.3886 138.166 21.0686 137.254 21.5486C136.358 22.0126 135.334 22.2446 134.182 22.2446ZM145.996 22.2446C144.94 22.2446 143.932 22.1006 142.972 21.8126C142.028 21.5246 141.284 21.1726 140.74 20.7566L141.7 18.9326C142.244 19.3006 142.916 19.6126 143.716 19.8686C144.516 20.1246 145.332 20.2526 146.164 20.2526C147.236 20.2526 148.004 20.1006 148.468 19.7966C148.948 19.4926 149.188 19.0686 149.188 18.5246C149.188 18.1246 149.044 17.8126 148.756 17.5886C148.468 17.3646 148.084 17.1966 147.604 17.0846C147.14 16.9726 146.62 16.8766 146.044 16.7966C145.468 16.7006 144.892 16.5886 144.316 16.4606C143.74 16.3166 143.212 16.1246 142.732 15.8846C142.252 15.6286 141.868 15.2846 141.58 14.8526C141.292 14.4046 141.148 13.8126 141.148 13.0766C141.148 12.3086 141.364 11.6366 141.796 11.0606C142.228 10.4846 142.836 10.0446 143.62 9.74058C144.42 9.42059 145.364 9.26059 146.452 9.26059C147.284 9.26059 148.124 9.36459 148.972 9.57259C149.836 9.76459 150.54 10.0446 151.084 10.4126L150.1 12.2366C149.524 11.8526 148.924 11.5886 148.3 11.4446C147.676 11.3006 147.052 11.2286 146.428 11.2286C145.42 11.2286 144.668 11.3966 144.172 11.7326C143.676 12.0526 143.428 12.4686 143.428 12.9806C143.428 13.4126 143.572 13.7486 143.86 13.9886C144.164 14.2126 144.548 14.3886 145.012 14.5166C145.492 14.6446 146.02 14.7566 146.596 14.8526C147.172 14.9326 147.748 15.0446 148.324 15.1886C148.9 15.3166 149.42 15.5006 149.884 15.7406C150.364 15.9806 150.748 16.3166 151.036 16.7486C151.34 17.1806 151.492 17.7566 151.492 18.4766C151.492 19.2446 151.268 19.9086 150.82 20.4686C150.372 21.0286 149.74 21.4686 148.924 21.7886C148.108 22.0926 147.132 22.2446 145.996 22.2446Z" fill="black"/>
<defs>
<clipPath id="clip0_7115_1964">
<rect width="85.5707" height="24.2014" fill="white" transform="translate(0 0.899414)"/>
</clipPath>
</defs>
</svg>
