<svg width="1729" height="483" viewBox="0 0 1729 483" fill="none" xmlns="http://www.w3.org/2000/svg">
<path d="M688 171.4V194H629.8V229.8H674.4V252H629.8V311H601.8V171.4H688ZM735.455 171.4V257.8C735.455 267.267 737.921 274.533 742.855 279.6C747.788 284.533 754.721 287 763.655 287C772.721 287 779.721 284.533 784.655 279.6C789.588 274.533 792.055 267.267 792.055 257.8V171.4H820.255V257.6C820.255 269.467 817.655 279.533 812.455 287.8C807.388 295.933 800.521 302.067 791.855 306.2C783.321 310.333 773.788 312.4 763.255 312.4C752.855 312.4 743.388 310.333 734.855 306.2C726.455 302.067 719.788 295.933 714.855 287.8C709.921 279.533 707.455 269.467 707.455 257.6V171.4H735.455ZM895.508 312.4C885.774 312.4 876.974 310.733 869.108 307.4C861.374 304.067 855.241 299.267 850.708 293C846.174 286.733 843.841 279.333 843.708 270.8H873.708C874.108 276.533 876.108 281.067 879.708 284.4C883.441 287.733 888.508 289.4 894.908 289.4C901.441 289.4 906.574 287.867 910.308 284.8C914.041 281.6 915.908 277.467 915.908 272.4C915.908 268.267 914.641 264.867 912.108 262.2C909.574 259.533 906.374 257.467 902.508 256C898.774 254.4 893.574 252.667 886.908 250.8C877.841 248.133 870.441 245.533 864.708 243C859.108 240.333 854.241 236.4 850.108 231.2C846.108 225.867 844.108 218.8 844.108 210C844.108 201.733 846.174 194.533 850.308 188.4C854.441 182.267 860.241 177.6 867.708 174.4C875.174 171.067 883.708 169.4 893.308 169.4C907.708 169.4 919.374 172.933 928.308 180C937.374 186.933 942.374 196.667 943.308 209.2H912.508C912.241 204.4 910.174 200.467 906.308 197.4C902.574 194.2 897.574 192.6 891.308 192.6C885.841 192.6 881.441 194 878.108 196.8C874.908 199.6 873.308 203.667 873.308 209C873.308 212.733 874.508 215.867 876.908 218.4C879.441 220.8 882.508 222.8 886.108 224.4C889.841 225.867 895.041 227.6 901.708 229.6C910.774 232.267 918.174 234.933 923.908 237.6C929.641 240.267 934.574 244.267 938.708 249.6C942.841 254.933 944.908 261.933 944.908 270.6C944.908 278.067 942.974 285 939.108 291.4C935.241 297.8 929.574 302.933 922.108 306.8C914.641 310.533 905.774 312.4 895.508 312.4ZM997.183 194V229H1044.18V251.2H997.183V288.2H1050.18V311H969.183V171.2H1050.18V194H997.183ZM1172.08 171.4C1186.75 171.4 1199.62 174.267 1210.68 180C1221.88 185.733 1230.48 193.933 1236.48 204.6C1242.62 215.133 1245.68 227.4 1245.68 241.4C1245.68 255.4 1242.62 267.667 1236.48 278.2C1230.48 288.6 1221.88 296.667 1210.68 302.4C1199.62 308.133 1186.75 311 1172.08 311H1123.28V171.4H1172.08ZM1171.08 287.2C1185.75 287.2 1197.08 283.2 1205.08 275.2C1213.08 267.2 1217.08 255.933 1217.08 241.4C1217.08 226.867 1213.08 215.533 1205.08 207.4C1197.08 199.133 1185.75 195 1171.08 195H1151.28V287.2H1171.08ZM1315.84 312.8C1305.18 312.8 1295.58 310.467 1287.04 305.8C1278.51 301 1271.78 294.267 1266.84 285.6C1262.04 276.933 1259.64 266.933 1259.64 255.6C1259.64 244.267 1262.11 234.267 1267.04 225.6C1272.11 216.933 1278.98 210.267 1287.64 205.6C1296.31 200.8 1305.98 198.4 1316.64 198.4C1327.31 198.4 1336.98 200.8 1345.64 205.6C1354.31 210.267 1361.11 216.933 1366.04 225.6C1371.11 234.267 1373.64 244.267 1373.64 255.6C1373.64 266.933 1371.04 276.933 1365.84 285.6C1360.78 294.267 1353.84 301 1345.04 305.8C1336.38 310.467 1326.64 312.8 1315.84 312.8ZM1315.84 288.4C1320.91 288.4 1325.64 287.2 1330.04 284.8C1334.58 282.267 1338.18 278.533 1340.84 273.6C1343.51 268.667 1344.84 262.667 1344.84 255.6C1344.84 245.067 1342.04 237 1336.44 231.4C1330.98 225.667 1324.24 222.8 1316.24 222.8C1308.24 222.8 1301.51 225.667 1296.04 231.4C1290.71 237 1288.04 245.067 1288.04 255.6C1288.04 266.133 1290.64 274.267 1295.84 280C1301.18 285.6 1307.84 288.4 1315.84 288.4ZM1386.98 255.6C1386.98 244.133 1389.32 234.133 1393.98 225.6C1398.65 216.933 1405.12 210.267 1413.38 205.6C1421.65 200.8 1431.12 198.4 1441.78 198.4C1455.52 198.4 1466.85 201.867 1475.78 208.8C1484.85 215.6 1490.92 225.2 1493.98 237.6H1463.78C1462.18 232.8 1459.45 229.067 1455.58 226.4C1451.85 223.6 1447.18 222.2 1441.58 222.2C1433.58 222.2 1427.25 225.133 1422.58 231C1417.92 236.733 1415.58 244.933 1415.58 255.6C1415.58 266.133 1417.92 274.333 1422.58 280.2C1427.25 285.933 1433.58 288.8 1441.58 288.8C1452.92 288.8 1460.32 283.733 1463.78 273.6H1493.98C1490.92 285.6 1484.85 295.133 1475.78 302.2C1466.72 309.267 1455.38 312.8 1441.78 312.8C1431.12 312.8 1421.65 310.467 1413.38 305.8C1405.12 301 1398.65 294.333 1393.98 285.8C1389.32 277.133 1386.98 267.067 1386.98 255.6ZM1556.9 312.8C1547.83 312.8 1539.7 311.2 1532.5 308C1525.3 304.667 1519.56 300.2 1515.3 294.6C1511.16 289 1508.9 282.8 1508.5 276H1536.7C1537.23 280.267 1539.3 283.8 1542.9 286.6C1546.63 289.4 1551.23 290.8 1556.7 290.8C1562.03 290.8 1566.16 289.733 1569.1 287.6C1572.16 285.467 1573.7 282.733 1573.7 279.4C1573.7 275.8 1571.83 273.133 1568.1 271.4C1564.5 269.533 1558.7 267.533 1550.7 265.4C1542.43 263.4 1535.63 261.333 1530.3 259.2C1525.1 257.067 1520.56 253.8 1516.7 249.4C1512.96 245 1511.1 239.067 1511.1 231.6C1511.1 225.467 1512.83 219.867 1516.3 214.8C1519.9 209.733 1524.96 205.733 1531.5 202.8C1538.16 199.867 1545.96 198.4 1554.9 198.4C1568.1 198.4 1578.63 201.733 1586.5 208.4C1594.36 214.933 1598.7 223.8 1599.5 235H1572.7C1572.3 230.6 1570.43 227.133 1567.1 224.6C1563.9 221.933 1559.56 220.6 1554.1 220.6C1549.03 220.6 1545.1 221.533 1542.3 223.4C1539.63 225.267 1538.3 227.867 1538.3 231.2C1538.3 234.933 1540.16 237.8 1543.9 239.8C1547.63 241.667 1553.43 243.6 1561.3 245.6C1569.3 247.6 1575.9 249.667 1581.1 251.8C1586.3 253.933 1590.76 257.267 1594.5 261.8C1598.36 266.2 1600.36 272.067 1600.5 279.4C1600.5 285.8 1598.7 291.533 1595.1 296.6C1591.63 301.667 1586.56 305.667 1579.9 308.6C1573.36 311.4 1565.7 312.8 1556.9 312.8Z" fill="white"/>
<g clip-path="url(#clip0_105_7)">
<path d="M242.057 482.318C375.245 482.318 483.216 374.347 483.216 241.159C483.216 107.971 375.245 0 242.057 0C108.869 0 0.897999 107.971 0.897999 241.159C0.897999 374.347 108.869 482.318 242.057 482.318Z" fill="#B4F9BA"/>
<path d="M184.543 100.393L239.67 68.5582C241.24 67.6525 243.187 67.6525 244.757 68.5582L390.046 152.441C391.616 153.347 392.582 155.022 392.597 156.834L392.793 214.526C392.793 216.353 391.827 218.044 390.242 218.949L335.191 250.739C331.81 252.702 327.568 250.256 327.553 246.347L327.372 194.571C327.372 192.76 326.391 191.084 324.821 190.178L184.543 109.209C181.147 107.247 181.147 102.356 184.543 100.393Z" fill="#010101"/>
<path d="M148.924 361.714L93.8128 329.894C92.2278 328.989 91.2617 327.313 91.2617 325.487V157.721C91.2617 155.91 92.2278 154.234 93.7977 153.313L143.671 124.286C145.256 123.365 147.204 123.365 148.774 124.286L203.825 156.076C207.206 158.038 207.221 162.914 203.84 164.891L159.098 190.93C157.529 191.836 156.563 193.511 156.563 195.338V357.322C156.563 361.246 152.321 363.692 148.924 361.73V361.714Z" fill="#010101"/>
<path d="M392.841 261.829V325.47C392.841 327.296 391.875 328.972 390.29 329.878L245.001 413.76C243.431 414.666 241.499 414.666 239.929 413.76L189.859 385.08C188.274 384.174 187.293 382.483 187.293 380.657V317.092C187.293 313.182 191.52 310.737 194.916 312.669L239.839 338.406C241.408 339.312 243.341 339.297 244.91 338.406L385.188 257.407C388.584 255.444 392.826 257.89 392.826 261.814L392.841 261.829Z" fill="#010101"/>
</g>
<defs>
<clipPath id="clip0_105_7">
<rect width="484" height="483" fill="white"/>
</clipPath>
</defs>
</svg>
