<svg width="505" height="131" viewBox="0 0 505 131" fill="none" xmlns="http://www.w3.org/2000/svg">
<rect y="0.781006" width="505" height="130" rx="4" fill="#F2F2F2"/>
<g clip-path="url(#clip0_11241_2696)">
<path d="M274.203 85.7393L274.19 61.1943L252.655 73.5536L252.668 98.0986L274.203 85.7393Z" fill="white" stroke="#1B1B1B" stroke-width="0.586527" stroke-linecap="round" stroke-linejoin="round"/>
<path d="M252.668 98.0987L252.655 73.5537L230.461 60.5797L230.474 85.1247L252.668 98.0987Z" fill="white" stroke="#1B1B1B" stroke-width="0.586527" stroke-linecap="round" stroke-linejoin="round"/>
<path d="M252.655 73.5536L230.461 60.5796L251.996 48.2203L274.19 61.1943L252.655 73.5536Z" fill="white" stroke="#1B1B1B" stroke-width="0.586527" stroke-linecap="round" stroke-linejoin="round"/>
<path d="M296.074 98.7133L296.061 74.1683L274.526 86.5288L274.539 111.074L296.074 98.7133Z" fill="white" stroke="#1B1B1B" stroke-width="0.5" stroke-linecap="round" stroke-linejoin="round"/>
<path d="M274.539 111.074L274.526 86.5289L252.332 73.5537L252.345 98.0999L274.539 111.074Z" fill="white" stroke="#1B1B1B" stroke-width="0.5" stroke-linecap="round" stroke-linejoin="round"/>
<path d="M274.526 86.5288L252.332 73.5536L273.867 61.1943L296.061 74.1683L274.526 86.5288Z" fill="white" stroke="#1B1B1B" stroke-width="0.5" stroke-linecap="round" stroke-linejoin="round"/>
<path d="M274.203 61.1944L274.19 36.6494L252.655 49.0087L252.668 73.5537L274.203 61.1944Z" fill="white" stroke="#1B1B1B" stroke-width="0.586527" stroke-linecap="round" stroke-linejoin="round"/>
<path d="M252.668 73.5536L252.655 49.0087L230.461 36.0347L230.474 60.5797L252.668 73.5536Z" fill="white" stroke="#1B1B1B" stroke-width="0.586527" stroke-linecap="round" stroke-linejoin="round"/>
<path d="M252.655 49.0087L230.461 36.0347L251.996 23.6754L274.19 36.6494L252.655 49.0087Z" fill="white" stroke="#1B1B1B" stroke-width="0.586527" stroke-linecap="round" stroke-linejoin="round"/>
<path d="M296.074 74.1684L296.061 49.6234L274.526 61.9827L274.539 86.5289L296.074 74.1684Z" fill="white" stroke="#1B1B1B" stroke-width="0.5" stroke-linecap="round" stroke-linejoin="round"/>
<path d="M274.539 86.5288L274.526 61.9826L252.332 49.0087L252.345 73.5537L274.539 86.5288Z" fill="white" stroke="#1B1B1B" stroke-width="0.5" stroke-linecap="round" stroke-linejoin="round"/>
<path d="M274.526 61.9826L252.332 49.0086L273.867 36.6493L296.061 49.6233L274.526 61.9826Z" fill="white" stroke="#1B1B1B" stroke-width="0.5" stroke-linecap="round" stroke-linejoin="round"/>
<path d="M252.668 98.0119L252.655 73.4669L231.12 85.8262L231.133 110.372L252.668 98.0119Z" fill="white" stroke="#1B1B1B" stroke-width="0.5" stroke-linecap="round" stroke-linejoin="round"/>
<path d="M231.133 110.372L231.12 85.8262L208.926 72.8522L208.939 97.3972L231.133 110.372Z" fill="white" stroke="#1B1B1B" stroke-width="0.5" stroke-linecap="round" stroke-linejoin="round"/>
<path d="M231.12 85.8262L208.926 72.8522L230.461 60.4929L252.655 73.4669L231.12 85.8262Z" fill="white" stroke="#1B1B1B" stroke-width="0.5" stroke-linecap="round" stroke-linejoin="round"/>
<path d="M274.539 110.986L274.526 86.441L252.992 98.8015L253.004 123.347L274.539 110.986Z" fill="white" stroke="#1B1B1B" stroke-width="0.5" stroke-linecap="round" stroke-linejoin="round"/>
<path d="M253.004 123.346L252.991 98.8014L230.797 85.8263L230.81 110.372L253.004 123.346Z" fill="white" stroke="#1B1B1B" stroke-width="0.5" stroke-linecap="round" stroke-linejoin="round"/>
<path d="M252.991 98.8014L230.797 85.8262L252.332 73.4669L274.526 86.4409L252.991 98.8014Z" fill="white" stroke="#1B1B1B" stroke-width="0.5" stroke-linecap="round" stroke-linejoin="round"/>
<path d="M252.668 73.467L252.655 48.922L231.12 61.2813L231.133 85.8263L252.668 73.467Z" fill="white" stroke="#1B1B1B" stroke-width="0.5" stroke-linecap="round" stroke-linejoin="round"/>
<path d="M231.133 85.8262L231.12 61.2812L208.926 48.3073L208.939 72.8522L231.133 85.8262Z" fill="white" stroke="#1B1B1B" stroke-width="0.5" stroke-linecap="round" stroke-linejoin="round"/>
<path d="M231.12 61.2813L208.926 48.3073L230.461 35.948L252.655 48.922L231.12 61.2813Z" fill="white" stroke="#1B1B1B" stroke-width="0.5" stroke-linecap="round" stroke-linejoin="round"/>
<path d="M274.158 48.2427L274.144 23.6978L252.609 36.0582L252.622 60.6032L274.158 48.2427Z" fill="#B4F9BA" stroke="#242424" stroke-width="0.5" stroke-linecap="round" stroke-linejoin="round"/>
<path d="M252.622 60.6032L252.609 36.0582L230.415 23.083L230.428 47.6292L252.622 60.6032Z" fill="#B4F9BA" stroke="#242424" stroke-width="0.5" stroke-linecap="round" stroke-linejoin="round"/>
<path d="M252.609 36.0581L230.415 23.0829L251.95 10.7236L274.144 23.6976L252.609 36.0581Z" fill="#B4F9BA" stroke="#242424" stroke-width="0.5" stroke-linecap="round" stroke-linejoin="round"/>
</g>
<defs>
<clipPath id="clip0_11241_2696">
<rect width="87.7351" height="113.209" fill="white" transform="translate(208.632 10.4304)"/>
</clipPath>
</defs>
</svg>
