<svg width="505" height="131" viewBox="0 0 505 131" fill="none" xmlns="http://www.w3.org/2000/svg">
<rect y="0.781006" width="505" height="130" rx="4" fill="#F2F2F2"/>
<g clip-path="url(#clip0_11241_2688)">
<path d="M251.979 62.9618L251.958 48.7216L217.435 68.8985L217.456 83.1388L251.979 62.9618Z" fill="white" stroke="#1B1B1B" stroke-width="0.5" stroke-linecap="round" stroke-linejoin="round"/>
<path d="M251.949 62.9618L251.969 48.7216L287.554 69.405L287.533 83.6442L251.949 62.9618Z" fill="white" stroke="#1B1B1B" stroke-width="0.5" stroke-linecap="round" stroke-linejoin="round"/>
<path d="M311.711 85.3599L311.675 70.2505L253.377 104.322L253.412 119.431L311.711 85.3599Z" fill="white" stroke="#1B1B1B" stroke-width="0.5" stroke-linecap="round" stroke-linejoin="round"/>
<path d="M253.412 119.431L253.377 104.322L193.295 68.5576L193.33 83.6661L253.412 119.431Z" fill="white" stroke="#1B1B1B" stroke-width="0.5" stroke-linecap="round" stroke-linejoin="round"/>
<path d="M251.592 34.4893L193.289 68.5616L253.379 104.32L311.683 70.2484L251.592 34.4893ZM253.016 90.0865L217.435 68.9015L251.97 48.7226L287.551 69.9085L253.016 90.0884V90.0865Z" fill="white" stroke="#1B1B1B" stroke-width="0.5" stroke-linecap="round" stroke-linejoin="round"/>
<path d="M253.151 51.3578L253.171 35.6289L287.694 55.8059L270.423 58.2896L253.151 51.3578Z" fill="#B4F9BA" stroke="#242424" stroke-width="0.5" stroke-linecap="round" stroke-linejoin="round"/>
<path d="M287.565 59.694L287.544 43.9651L253.021 64.1411L253.042 79.87L287.565 59.694Z" fill="#B4F9BA" stroke="#242424" stroke-width="0.5" stroke-linecap="round" stroke-linejoin="round"/>
<path d="M253.32 52.6859L253.3 36.957L218.777 57.134L236.049 59.6177L253.32 52.6859Z" fill="#B4F9BA" stroke="#242424" stroke-width="0.5" stroke-linecap="round" stroke-linejoin="round"/>
<path d="M253.042 79.8699L253.021 64.141L217.441 42.962L217.462 58.6909L253.042 79.8699Z" fill="#B4F9BA"/>
<path d="M253.042 79.8699L253.021 64.141L217.441 42.962L217.462 58.6909L253.042 79.8699Z" stroke="#242424" stroke-width="0.5" stroke-linecap="round" stroke-linejoin="round"/>
<path d="M251.961 22.7842L217.442 42.9641L253.017 64.1352L287.548 43.9671L251.961 22.7842ZM241.929 43.8006L253.24 37.1939L264.892 44.1237L253.581 50.7305L241.929 43.8006Z" fill="#B4F9BA" stroke="#242424" stroke-width="0.5" stroke-linecap="round" stroke-linejoin="round"/>
<path d="M264.893 32.186L264.887 19.0657L253.582 25.6724L253.59 38.7927L264.893 32.186Z" fill="white" stroke="#1B1B1B" stroke-width="0.5" stroke-linecap="round" stroke-linejoin="round"/>
<path d="M253.59 38.7927L253.582 25.6725L241.931 18.7377L241.938 31.858L253.59 38.7927Z" fill="white" stroke="#1B1B1B" stroke-width="0.5" stroke-linecap="round" stroke-linejoin="round"/>
<path d="M253.582 25.6724L241.931 18.7376L253.236 12.1309L264.887 19.0656L253.582 25.6724Z" fill="white" stroke="#1B1B1B" stroke-width="0.5" stroke-linecap="round" stroke-linejoin="round"/>
</g>
<defs>
<clipPath id="clip0_11241_2688">
<rect width="118.909" height="107.796" fill="white" transform="translate(193.046 11.8831)"/>
</clipPath>
</defs>
</svg>
