<svg width="505" height="131" viewBox="0 0 505 131" fill="none" xmlns="http://www.w3.org/2000/svg">
<rect y="0.781006" width="505" height="130" rx="4" fill="#F2F2F2"/>
<g clip-path="url(#clip0_11241_2574)">
<path d="M320.901 47.7023L320.893 31.688L306.842 39.7522L306.85 55.7677L320.901 47.7023Z" fill="#B4F9BA" stroke="#242424" stroke-width="0.5" stroke-linecap="round" stroke-linejoin="round"/>
<path d="M306.85 55.7676L306.842 39.7521L292.361 31.2874L292.369 47.3017L306.85 55.7676Z" fill="#B4F9BA" stroke="#242424" stroke-width="0.5" stroke-linecap="round" stroke-linejoin="round"/>
<path d="M306.842 39.7522L292.361 31.2874L306.412 23.222L320.893 31.688L306.842 39.7522Z" fill="#B4F9BA" stroke="#242424" stroke-width="0.5" stroke-linecap="round" stroke-linejoin="round"/>
<path d="M296.496 71.8579L296.488 55.8424L282.436 63.9078L282.444 79.9221L296.496 71.8579Z" fill="#B4F9BA" stroke="#242424" stroke-width="0.594267" stroke-linecap="round" stroke-linejoin="round"/>
<path d="M282.444 79.9222L282.436 63.9079L267.954 55.442L267.963 71.4575L282.444 79.9222Z" fill="#B4F9BA" stroke="#242424" stroke-width="0.594267" stroke-linecap="round" stroke-linejoin="round"/>
<path d="M282.436 63.9078L267.954 55.4419L282.005 47.3777L296.488 55.8424L282.436 63.9078Z" fill="white" stroke="#1B1B1B" stroke-width="0.594267" stroke-linecap="round" stroke-linejoin="round"/>
<path d="M282.436 47.4455L282.427 31.4301L268.376 39.4943L268.385 55.5097L282.436 47.4455Z" fill="white" stroke="#1B1B1B" stroke-width="0.594267" stroke-linecap="round" stroke-linejoin="round"/>
<path d="M268.385 55.5098L268.376 39.4943L253.895 31.0295L253.904 47.045L268.385 55.5098Z" fill="#B4F9BA" stroke="#242424" stroke-width="0.594267" stroke-linecap="round" stroke-linejoin="round"/>
<path d="M268.376 39.4943L253.895 31.0295L267.946 22.9653L282.427 31.4301L268.376 39.4943Z" fill="#B4F9BA" stroke="#242424" stroke-width="0.594267" stroke-linecap="round" stroke-linejoin="round"/>
<path d="M296.496 93.3372L249.335 120.4L249.299 66.6428L282.578 47.5549L282.59 63.826L296.484 55.8509L296.496 93.3372Z" fill="white" stroke="#1B1B1B" stroke-width="0.5" stroke-linecap="round" stroke-linejoin="round"/>
<path d="M249.335 120.4L200.724 91.9824L200.7 38.225L218.825 48.8267L218.837 64.86L233.325 73.3343L233.314 57.3009L249.299 66.6428L249.335 120.4Z" fill="white" stroke="#1B1B1B" stroke-width="0.5" stroke-linecap="round" stroke-linejoin="round"/>
<path d="M232.83 56.8446L232.82 40.8291L218.769 48.8933L218.778 64.9088L232.83 56.8446Z" fill="white" stroke="#1B1B1B" stroke-width="0.594267" stroke-linecap="round" stroke-linejoin="round"/>
<path d="M282.578 47.5549L249.299 66.6427L233.363 57.2783L247.269 49.2913L232.793 40.829L218.887 48.804L200.7 38.2249L247.861 11.162L282.424 31.3671L268.542 39.3421L282.578 47.5549Z" fill="white" stroke="#1B1B1B" stroke-width="0.5" stroke-linecap="round" stroke-linejoin="round"/>
<path d="M212.64 77.3489L212.631 61.3334L198.58 69.3988L198.588 85.4131L212.64 77.3489Z" fill="#B4F9BA" stroke="#242424" stroke-width="0.5" stroke-linecap="round" stroke-linejoin="round"/>
<path d="M198.588 85.4132L198.58 69.3989L184.099 60.933L184.107 76.9485L198.588 85.4132Z" fill="#B4F9BA" stroke="#242424" stroke-width="0.5" stroke-linecap="round" stroke-linejoin="round"/>
<path d="M198.58 69.3989L184.099 60.933L198.15 52.8688L212.631 61.3335L198.58 69.3989Z" fill="#B4F9BA" stroke="#242424" stroke-width="0.5" stroke-linecap="round" stroke-linejoin="round"/>
</g>
<path d="M154.84 31.1964L159.814 28.3058C162.138 32.2232 164.318 35.8918 166.615 39.7593L161.641 42.6499C159.344 38.7824 157.164 35.1138 154.84 31.1964Z" fill="url(#paint0_linear_11241_2574)" stroke="#242424" stroke-width="0.3" stroke-linecap="round" stroke-linejoin="round"/>
<path d="M161.641 42.6499L166.615 39.7593C165.75 40.2625 165.159 40.6096 164.601 40.9375L159.627 43.8281C160.185 43.4999 160.776 43.1531 161.641 42.6499Z" fill="#B4F9BA" stroke="#242424" stroke-width="0.3" stroke-linecap="round" stroke-linejoin="round"/>
<path d="M159.94 24.9266L164.914 22.036C165.18 22.5667 165.692 23.5845 166.296 24.7912L161.322 27.6819C160.718 26.4755 160.206 25.4573 159.94 24.9266Z" fill="#B4F9BA" stroke="#242424" stroke-width="0.3" stroke-linecap="round" stroke-linejoin="round"/>
<path d="M151.486 29.7443L156.46 26.8536C159.224 25.2788 162.029 23.6797 164.914 22.036L159.939 24.9266C157.055 26.5703 154.249 28.1694 151.486 29.7443Z" fill="#B4F9BA" stroke="#242424" stroke-width="0.3" stroke-linecap="round" stroke-linejoin="round"/>
<path d="M159.94 24.9265C160.206 25.4572 160.718 26.475 161.322 27.6817C159.242 28.8083 157.067 29.9893 154.84 31.1964C157.164 35.1138 159.344 38.7824 161.641 42.6499C160.776 43.1531 160.185 43.5002 159.627 43.8281C156.714 38.7924 154.019 34.1284 151.486 29.7441C154.249 28.1693 157.055 26.5702 159.94 24.9265Z" fill="#B4F9BA" stroke="#242424" stroke-width="0.3" stroke-linecap="round" stroke-linejoin="round"/>
<path d="M172.017 27.1871L176.991 24.2965C177.867 25.1689 178.572 25.8699 179.479 26.7698L174.505 29.6605C173.598 28.7602 172.893 28.0596 172.017 27.1871Z" fill="#B4F9BA" stroke="#242424" stroke-width="0.3" stroke-linecap="round" stroke-linejoin="round"/>
<path d="M174.505 29.6603L179.479 26.7697C176.645 33.8742 173.845 40.8946 170.963 48.12L165.989 51.0106C168.871 43.7852 171.671 36.7648 174.505 29.6603Z" fill="url(#paint1_linear_11241_2574)" stroke="#242424" stroke-width="0.3" stroke-linecap="round" stroke-linejoin="round"/>
<path d="M172.017 27.1871C172.893 28.0596 173.598 28.7606 174.505 29.6604C171.671 36.765 168.871 43.7854 165.989 51.0107C165.059 50.0588 164.354 49.3372 163.514 48.4754C166.356 41.3588 169.159 34.3366 172.017 27.1871Z" fill="#B4F9BA" stroke="#242424" stroke-width="0.3" stroke-linecap="round" stroke-linejoin="round"/>
<path d="M176.622 51.3583L181.596 48.4676C183.741 47.324 185.896 46.1754 188.18 44.9601L183.206 47.8507C180.922 49.0663 178.767 50.215 176.622 51.3583Z" fill="#B4F9BA" stroke="#242424" stroke-width="0.3" stroke-linecap="round" stroke-linejoin="round"/>
<path d="M178.222 35.52L183.196 32.6294C185.915 37.3522 188.691 42.1773 191.343 46.7829L186.369 49.6735C183.716 45.0679 180.941 40.2432 178.222 35.52Z" fill="url(#paint2_linear_11241_2574)" stroke="#242424" stroke-width="0.3" stroke-linecap="round" stroke-linejoin="round"/>
<path d="M176.255 36.2342L181.229 33.3436C182.163 33.0043 182.756 32.7905 183.196 32.6294L178.222 35.52C177.782 35.6811 177.189 35.8953 176.255 36.2342Z" fill="#B4F9BA" stroke="#242424" stroke-width="0.3" stroke-linecap="round" stroke-linejoin="round"/>
<path d="M178.222 35.52C180.941 40.2428 183.716 45.0679 186.369 49.6735C183.832 51.1229 181.059 52.7102 178.087 54.4138C177.761 53.7345 177.271 52.7113 176.622 51.3581C178.767 50.2145 180.922 49.0658 183.206 47.8506C180.882 43.9674 178.66 40.2539 176.255 36.2342C177.189 35.8949 177.782 35.6811 178.222 35.52Z" fill="#B4F9BA" stroke="#242424" stroke-width="0.3" stroke-linecap="round" stroke-linejoin="round"/>
<defs>
<linearGradient id="paint0_linear_11241_2574" x1="154.84" y1="35.478" x2="166.615" y2="35.478" gradientUnits="userSpaceOnUse">
<stop stop-color="#B4F9BA"/>
<stop offset="1" stop-color="#66E070"/>
</linearGradient>
<linearGradient id="paint1_linear_11241_2574" x1="165.989" y1="38.8899" x2="179.479" y2="38.8899" gradientUnits="userSpaceOnUse">
<stop stop-color="#B4F9BA"/>
<stop offset="1" stop-color="#66E070"/>
</linearGradient>
<linearGradient id="paint2_linear_11241_2574" x1="178.222" y1="41.1513" x2="191.344" y2="41.1513" gradientUnits="userSpaceOnUse">
<stop stop-color="#B4F9BA"/>
<stop offset="1" stop-color="#66E070"/>
</linearGradient>
<clipPath id="clip0_11241_2574">
<rect width="137.397" height="109.832" fill="white" transform="translate(183.802 10.8649)"/>
</clipPath>
</defs>
</svg>
