<svg width="505" height="131" viewBox="0 0 505 131" fill="none" xmlns="http://www.w3.org/2000/svg">
<rect y="0.781006" width="505" height="130" rx="4" fill="#F2F2F2"/>
<g clip-path="url(#clip0_11241_2590)">
<path d="M274.73 114.257L274.722 99.1366L261.455 106.751L261.463 121.872L274.73 114.257Z" fill="white" stroke="#1B1B1B" stroke-width="0.5" stroke-linecap="round" stroke-linejoin="round"/>
<path d="M261.463 121.872L261.455 106.751L227.888 88.1486L227.896 103.27L261.463 121.872Z" fill="white" stroke="#1B1B1B" stroke-width="0.5" stroke-linecap="round" stroke-linejoin="round"/>
<path d="M261.455 106.751L227.888 88.1485L241.154 80.5345L274.722 99.1365L261.455 106.751Z" fill="white" stroke="#1B1B1B" stroke-width="0.5" stroke-linecap="round" stroke-linejoin="round"/>
<path d="M218.869 104.957L218.877 89.8356L232.143 97.4496L232.135 112.571L218.869 104.957Z" fill="white" stroke="#1B1B1B" stroke-width="0.5" stroke-linecap="round" stroke-linejoin="round"/>
<path d="M232.135 112.571L232.143 97.4495L265.711 78.8485L265.703 93.9685L232.135 112.571Z" fill="white" stroke="#1B1B1B" stroke-width="0.5" stroke-linecap="round" stroke-linejoin="round"/>
<path d="M232.143 97.4495L265.711 78.8485L252.445 71.2335L218.877 89.8355L232.143 97.4495Z" fill="white" stroke="#1B1B1B" stroke-width="0.5" stroke-linecap="round" stroke-linejoin="round"/>
<path d="M265.715 78.7296L265.707 63.6086L252.441 71.2226L252.449 86.3436L265.715 78.7296Z" fill="#B4F9BA" stroke="#242424" stroke-width="0.5" stroke-linecap="round" stroke-linejoin="round"/>
<path d="M252.449 86.3436L252.441 71.2226L218.873 52.6216L218.881 67.7416L252.449 86.3436Z" fill="#B4F9BA" stroke="#242424" stroke-width="0.5" stroke-linecap="round" stroke-linejoin="round"/>
<path d="M252.441 71.2226L218.873 52.6216L232.139 45.0066L265.707 63.6086L252.441 71.2226Z" fill="#B4F9BA" stroke="#242424" stroke-width="0.5" stroke-linecap="round" stroke-linejoin="round"/>
<path d="M239.289 64.0806L239.297 48.9606L252.564 56.5746L252.556 71.6946L239.289 64.0806Z" fill="white" stroke="#1B1B1B" stroke-width="0.5" stroke-linecap="round" stroke-linejoin="round"/>
<path d="M252.556 71.6945L252.564 56.5745L286.131 37.9725L286.123 53.0935L252.556 71.6945Z" fill="white" stroke="#1B1B1B" stroke-width="0.5" stroke-linecap="round" stroke-linejoin="round"/>
<path d="M252.564 56.5745L286.131 37.9725L272.865 30.3585L239.297 48.9605L252.564 56.5745Z" fill="white" stroke="#1B1B1B" stroke-width="0.5" stroke-linecap="round" stroke-linejoin="round"/>
<path d="M275.921 43.4126L275.913 28.2926L262.647 35.9066L262.655 51.0266L275.921 43.4126Z" fill="white" stroke="#1B1B1B" stroke-width="0.5" stroke-linecap="round" stroke-linejoin="round"/>
<path d="M262.655 51.0266L262.647 35.9066L229.079 17.3046L229.087 32.4256L262.655 51.0266Z" fill="white" stroke="#1B1B1B" stroke-width="0.5" stroke-linecap="round" stroke-linejoin="round"/>
<path d="M262.647 35.9066L229.079 17.3046L242.345 9.69055L275.913 28.2926L262.647 35.9066Z" fill="white" stroke="#1B1B1B" stroke-width="0.5" stroke-linecap="round" stroke-linejoin="round"/>
</g>
<defs>
<clipPath id="clip0_11241_2590">
<rect width="67.762" height="112.681" fill="white" transform="translate(218.619 9.44055)"/>
</clipPath>
</defs>
</svg>
