<svg width="14" height="11" viewBox="0 0 14 11" fill="none" xmlns="http://www.w3.org/2000/svg">
<path d="M0.567161 9.3875C0.228889 9.62656 0.148454 10.0946 0.387505 10.4328C0.626555 10.7711 1.09457 10.8515 1.43284 10.6125L0.567161 9.3875ZM13.0597 2.12704C13.1298 1.71881 12.8558 1.331 12.4475 1.26084L5.79508 0.117516C5.38685 0.047355 4.99904 0.321414 4.92888 0.729642C4.85872 1.13787 5.13278 1.52568 5.54101 1.59584L11.4543 2.61213L10.438 8.52543C10.3679 8.93366 10.6419 9.32147 11.0501 9.39163C11.4584 9.46179 11.8462 9.18773 11.9163 8.7795L13.0597 2.12704ZM1.43284 10.6125L12.7533 2.6125L11.8877 1.38751L0.567161 9.3875L1.43284 10.6125Z" fill="black"/>
</svg>
