<svg width="259" height="170" viewBox="0 0 259 170" fill="none" xmlns="http://www.w3.org/2000/svg">
<g clip-path="url(#clip0_33156_421)">
<path d="M245.591 62.7013L245.58 40.6844L226.252 51.7713L226.263 73.7897L245.591 62.7013Z" fill="#DEDEDE" stroke="#242424" stroke-width="0.5" stroke-linecap="round" stroke-linejoin="round"/>
<path d="M226.263 73.7896L226.252 51.7712L206.332 40.1337L206.343 62.1505L226.263 73.7896Z" fill="#DEDEDE" stroke="#242424" stroke-width="0.5" stroke-linecap="round" stroke-linejoin="round"/>
<path d="M226.252 51.7713L206.332 40.1338L225.66 29.0453L245.58 40.6844L226.252 51.7713Z" fill="#DEDEDE" stroke="#242424" stroke-width="0.5" stroke-linecap="round" stroke-linejoin="round"/>
<path d="M212.02 95.911L212.008 73.8926L192.679 84.9811L192.69 106.998L212.02 95.911Z" fill="#B4F9BA" stroke="#242424" stroke-width="0.594267" stroke-linecap="round" stroke-linejoin="round"/>
<path d="M192.69 106.998L192.679 84.9812L172.759 73.342L172.77 95.3605L192.69 106.998Z" fill="#B4F9BA" stroke="#242424" stroke-width="0.594267" stroke-linecap="round" stroke-linejoin="round"/>
<path d="M192.679 84.9811L172.759 73.342L192.087 62.2551L212.008 73.8926L192.679 84.9811Z" fill="#F2F2F2" stroke="#1B1B1B" stroke-width="0.594267" stroke-linecap="round" stroke-linejoin="round"/>
<path d="M192.679 62.3483L192.667 40.3298L173.339 51.4167L173.351 73.4351L192.679 62.3483Z" fill="#F2F2F2" stroke="#1B1B1B" stroke-width="0.594267" stroke-linecap="round" stroke-linejoin="round"/>
<path d="M173.351 73.4353L173.339 51.4168L153.419 39.7793L153.431 61.7978L173.351 73.4353Z" fill="#F2F2F2" stroke="#242424" stroke-width="0.594267" stroke-linecap="round" stroke-linejoin="round"/>
<path d="M173.339 51.4167L153.419 39.7792L172.747 28.6924L192.667 40.3299L173.339 51.4167Z" fill="#F2F2F2" stroke="#242424" stroke-width="0.594267" stroke-linecap="round" stroke-linejoin="round"/>
<path d="M212.02 125.441L147.146 162.648L147.097 88.7411L192.875 62.4987L192.891 84.8684L212.003 73.9041L212.02 125.441Z" fill="#F2F2F2" stroke="#1B1B1B" stroke-width="0.5" stroke-linecap="round" stroke-linejoin="round"/>
<path d="M147.146 162.648L80.278 123.578L80.2453 49.6716L105.178 64.2471L105.194 86.2901L125.124 97.9407L125.107 75.8977L147.097 88.7411L147.146 162.648Z" fill="#F2F2F2" stroke="#1B1B1B" stroke-width="0.5" stroke-linecap="round" stroke-linejoin="round"/>
<path d="M124.442 75.2703L124.429 53.2518L105.101 64.3387L105.112 86.3571L124.442 75.2703Z" fill="#F2F2F2" stroke="#1B1B1B" stroke-width="0.594267" stroke-linecap="round" stroke-linejoin="round"/>
<path d="M192.875 62.4986L147.097 88.741L125.176 75.8665L144.305 64.8859L124.391 53.2517L105.263 64.216L80.2453 49.6715L145.119 12.4648L192.662 40.2432L173.566 51.2075L192.875 62.4986Z" fill="#F2F2F2" stroke="#1B1B1B" stroke-width="0.5" stroke-linecap="round" stroke-linejoin="round"/>
<path d="M96.6697 103.46L96.6566 81.4415L77.3286 92.53L77.34 114.547L96.6697 103.46Z" fill="#DEDEDE" stroke="#242424" stroke-width="0.5" stroke-linecap="round" stroke-linejoin="round"/>
<path d="M77.34 114.547L77.3286 92.5303L57.4087 80.8911L57.4202 102.91L77.34 114.547Z" fill="#DEDEDE" stroke="#242424" stroke-width="0.5" stroke-linecap="round" stroke-linejoin="round"/>
<path d="M77.3286 92.5302L57.4087 80.891L76.7367 69.8042L96.6566 81.4417L77.3286 92.5302Z" fill="#DEDEDE" stroke="#242424" stroke-width="0.5" stroke-linecap="round" stroke-linejoin="round"/>
</g>
<path d="M17.6107 39.8664L24.4485 35.8927C27.6433 41.2779 30.6401 46.3211 33.7976 51.6377L26.9598 55.6115C23.8023 50.2949 20.8055 45.2516 17.6107 39.8664Z" fill="#DEDEDE" stroke="#242424" stroke-width="0.3" stroke-linecap="round" stroke-linejoin="round"/>
<path d="M26.9598 55.6114L33.7976 51.6377C32.6086 52.3295 31.7963 52.8066 31.0301 53.2574L24.1923 57.2311C24.959 56.7799 25.7708 56.3032 26.9598 55.6114Z" fill="#DEDEDE" stroke="#242424" stroke-width="0.3" stroke-linecap="round" stroke-linejoin="round"/>
<path d="M24.6214 31.2474L31.4592 27.2737C31.8252 28.0032 32.5287 29.4024 33.3596 31.0613L26.5218 35.035C25.6909 33.3766 24.9874 31.9769 24.6214 31.2474Z" fill="#DEDEDE" stroke="#242424" stroke-width="0.3" stroke-linecap="round" stroke-linejoin="round"/>
<path d="M13 37.8702L19.8378 33.8964C23.6371 31.7315 27.4943 29.5332 31.4592 27.2737L24.6214 31.2474C20.6565 33.5069 16.7993 35.7052 13 37.8702Z" fill="#DEDEDE" stroke="#242424" stroke-width="0.3" stroke-linecap="round" stroke-linejoin="round"/>
<path d="M24.6214 31.2473C24.9874 31.9768 25.6909 33.376 26.5218 35.0349C23.6631 36.5835 20.6722 38.2071 17.6107 39.8665C20.8054 45.2517 23.8023 50.2949 26.9598 55.6115C25.7708 56.3033 24.9585 56.7805 24.1922 57.2312C20.1872 50.3086 16.4824 43.897 13 37.8701C16.7994 35.7051 20.6565 33.5068 24.6214 31.2473Z" fill="#DEDEDE" stroke="#242424" stroke-width="0.3" stroke-linecap="round" stroke-linejoin="round"/>
<path d="M41.2243 34.355L48.0621 30.3812C49.2664 31.5805 50.2359 32.5442 51.4818 33.7813L44.644 37.755C43.3981 36.5175 42.429 35.5543 41.2243 34.355Z" fill="#DEDEDE" stroke="#242424" stroke-width="0.3" stroke-linecap="round" stroke-linejoin="round"/>
<path d="M44.644 37.7547L51.4818 33.781C47.5864 43.5476 43.7371 53.1985 39.7752 63.1311L32.9373 67.1049C36.8993 57.1722 40.7486 47.5213 44.644 37.7547Z" fill="#DEDEDE" stroke="#242424" stroke-width="0.3" stroke-linecap="round" stroke-linejoin="round"/>
<path d="M41.2244 34.355C42.4286 35.5543 43.3981 36.518 44.644 37.755C40.7487 47.5216 36.8994 57.1725 32.9374 67.1052C31.6587 65.7966 30.6896 64.8045 29.5349 63.6199C33.4425 53.8366 37.2957 44.1833 41.2244 34.355Z" fill="#DEDEDE" stroke="#242424" stroke-width="0.3" stroke-linecap="round" stroke-linejoin="round"/>
<path d="M47.5541 67.5828L54.3919 63.609C57.3417 62.0369 60.3033 60.4579 63.4437 58.7872L56.6058 62.761C53.4655 64.4321 50.5039 66.0111 47.5541 67.5828Z" fill="#DEDEDE" stroke="#242424" stroke-width="0.3" stroke-linecap="round" stroke-linejoin="round"/>
<path d="M49.7543 45.8102L56.5921 41.8364C60.3297 48.3288 64.1452 54.9619 67.7922 61.2931L60.9544 65.2668C57.3074 58.9356 53.4919 52.3031 49.7543 45.8102Z" fill="#DEDEDE" stroke="#242424" stroke-width="0.3" stroke-linecap="round" stroke-linejoin="round"/>
<path d="M47.0504 46.792L53.8883 42.8182C55.1718 42.3518 55.9876 42.0579 56.5921 41.8364L49.7543 45.8102C49.1498 46.0316 48.334 46.3261 47.0504 46.792Z" fill="#DEDEDE" stroke="#242424" stroke-width="0.3" stroke-linecap="round" stroke-linejoin="round"/>
<path d="M49.7543 45.8101C53.4919 52.3025 57.3074 58.9355 60.9544 65.2667C57.4657 67.2592 53.6541 69.4413 49.5692 71.7832C49.1209 70.8494 48.4467 69.4428 47.5541 67.5826C50.5039 66.0104 53.4655 64.4314 56.6059 62.7608C53.4111 57.4226 50.3565 52.3177 47.0505 46.7919C48.3341 46.3255 49.1498 46.0315 49.7543 45.8101Z" fill="#DEDEDE" stroke="#242424" stroke-width="0.3" stroke-linecap="round" stroke-linejoin="round"/>
<defs>
<clipPath id="clip0_33156_421">
<rect width="189" height="151" fill="white" transform="translate(57 12.0564)"/>
</clipPath>
</defs>
</svg>
