<svg width="200" height="171" viewBox="0 0 200 171" fill="none" xmlns="http://www.w3.org/2000/svg">
<g clip-path="url(#clip0_33156_466)">
<path d="M98.7417 81.4882L98.712 60.88L48.4847 90.0797L48.5145 110.688L98.7417 81.4882Z" fill="#F2F2F2" stroke="#1B1B1B" stroke-width="0.5" stroke-linecap="round" stroke-linejoin="round"/>
<path d="M98.6978 81.4882L98.7276 60.88L150.5 90.8126L150.47 111.419L98.6978 81.4882Z" fill="#F2F2F2" stroke="#1B1B1B" stroke-width="0.5" stroke-linecap="round" stroke-linejoin="round"/>
<path d="M185.646 113.902L185.594 92.0363L100.777 141.344L100.828 163.21L185.646 113.902Z" fill="#F2F2F2" stroke="#1B1B1B" stroke-width="0.5" stroke-linecap="round" stroke-linejoin="round"/>
<path d="M100.828 163.21L100.777 141.343L13.3625 89.5863L13.4135 111.451L100.828 163.21Z" fill="#F2F2F2" stroke="#1B1B1B" stroke-width="0.5" stroke-linecap="round" stroke-linejoin="round"/>
<path d="M98.1795 40.2833L13.354 89.5921L100.779 141.341L185.605 92.0333L98.1795 40.2833ZM100.251 120.742L48.4847 90.084L98.729 60.8815L150.495 91.5413L100.251 120.745V120.742Z" fill="#F2F2F2" stroke="#1B1B1B" stroke-width="0.5" stroke-linecap="round" stroke-linejoin="round"/>
<path d="M100.447 64.6951L100.476 41.9326L150.704 71.1323L125.576 74.7267L100.447 64.6951Z" fill="#DEDEDE" stroke="#242424" stroke-width="0.5" stroke-linecap="round" stroke-linejoin="round"/>
<path d="M150.515 76.7591L150.485 53.9966L100.258 83.1949L100.288 105.957L150.515 76.7591Z" fill="#DEDEDE" stroke="#242424" stroke-width="0.5" stroke-linecap="round" stroke-linejoin="round"/>
<path d="M100.693 66.6171L100.663 43.8546L50.4361 73.0543L75.5653 76.6487L100.693 66.6171Z" fill="#DEDEDE" stroke="#242424" stroke-width="0.5" stroke-linecap="round" stroke-linejoin="round"/>
<path d="M100.288 105.957L100.258 83.1948L48.4933 52.545L48.523 75.3076L100.288 105.957Z" fill="#DEDEDE"/>
<path d="M100.288 105.957L100.258 83.1948L48.4933 52.545L48.523 75.3076L100.288 105.957Z" stroke="#242424" stroke-width="0.5" stroke-linecap="round" stroke-linejoin="round"/>
<path d="M98.716 23.344L48.4945 52.548L100.252 83.1863L150.491 53.9995L98.716 23.344ZM84.1208 53.7586L100.577 44.1974L117.528 54.2262L101.072 63.7873L84.1208 53.7586Z" fill="#DEDEDE" stroke="#242424" stroke-width="0.5" stroke-linecap="round" stroke-linejoin="round"/>
<path d="M117.531 36.9501L117.521 17.9626L101.074 27.5238L101.085 46.5112L117.531 36.9501Z" fill="#F2F2F2" stroke="#1B1B1B" stroke-width="0.5" stroke-linecap="round" stroke-linejoin="round"/>
<path d="M101.085 46.5112L101.074 27.5238L84.1238 17.4879L84.1338 36.4753L101.085 46.5112Z" fill="#F2F2F2" stroke="#1B1B1B" stroke-width="0.5" stroke-linecap="round" stroke-linejoin="round"/>
<path d="M101.074 27.5238L84.1239 17.4879L100.571 7.92676L117.521 17.9626L101.074 27.5238Z" fill="#F2F2F2" stroke="#1B1B1B" stroke-width="0.5" stroke-linecap="round" stroke-linejoin="round"/>
</g>
<defs>
<clipPath id="clip0_33156_466">
<rect width="173" height="156" fill="white" transform="translate(13 7.56812)"/>
</clipPath>
</defs>
</svg>
