<svg width="144" height="170" viewBox="0 0 144 170" fill="none" xmlns="http://www.w3.org/2000/svg">
<g clip-path="url(#clip0_33157_607)">
<path d="M106.338 155.042L106.327 133.975L87.9224 144.583L87.9335 165.652L106.338 155.042Z" fill="#F2F2F2" stroke="#1B1B1B" stroke-width="0.5" stroke-linecap="round" stroke-linejoin="round"/>
<path d="M87.9335 165.652L87.9224 144.583L41.358 118.665L41.3691 139.733L87.9335 165.652Z" fill="#F2F2F2" stroke="#1B1B1B" stroke-width="0.5" stroke-linecap="round" stroke-linejoin="round"/>
<path d="M87.9224 144.583L41.358 118.665L59.7607 108.056L106.327 133.975L87.9224 144.583Z" fill="#F2F2F2" stroke="#1B1B1B" stroke-width="0.5" stroke-linecap="round" stroke-linejoin="round"/>
<path d="M28.8468 142.084L28.8579 121.016L47.2606 131.624L47.2495 152.693L28.8468 142.084Z" fill="#F2F2F2" stroke="#1B1B1B" stroke-width="0.5" stroke-linecap="round" stroke-linejoin="round"/>
<path d="M47.2495 152.693L47.2606 131.624L93.8264 105.707L93.8153 126.774L47.2495 152.693Z" fill="#F2F2F2" stroke="#1B1B1B" stroke-width="0.5" stroke-linecap="round" stroke-linejoin="round"/>
<path d="M47.2607 131.624L93.8265 105.707L75.4238 95.0972L28.858 121.016L47.2607 131.624Z" fill="#F2F2F2" stroke="#1B1B1B" stroke-width="0.5" stroke-linecap="round" stroke-linejoin="round"/>
<path d="M93.832 105.541L93.8209 84.4731L75.4182 95.0818L75.4293 116.15L93.832 105.541Z" fill="#DEDEDE" stroke="#242424" stroke-width="0.5" stroke-linecap="round" stroke-linejoin="round"/>
<path d="M75.4293 116.15L75.4182 95.0818L28.8524 69.1648L28.8635 90.2317L75.4293 116.15Z" fill="#DEDEDE" stroke="#242424" stroke-width="0.5" stroke-linecap="round" stroke-linejoin="round"/>
<path d="M75.4182 95.0818L28.8524 69.1648L47.2551 58.5547L93.8209 84.4731L75.4182 95.0818Z" fill="#DEDEDE" stroke="#242424" stroke-width="0.5" stroke-linecap="round" stroke-linejoin="round"/>
<path d="M57.1736 85.1306L57.1847 64.0637L75.5888 74.6724L75.5777 95.7393L57.1736 85.1306Z" fill="#F2F2F2" stroke="#1B1B1B" stroke-width="0.5" stroke-linecap="round" stroke-linejoin="round"/>
<path d="M75.5777 95.7392L75.5888 74.6723L122.153 48.7539L122.142 69.8222L75.5777 95.7392Z" fill="#F2F2F2" stroke="#1B1B1B" stroke-width="0.5" stroke-linecap="round" stroke-linejoin="round"/>
<path d="M75.5889 74.6724L122.153 48.754L103.751 38.1453L57.1848 64.0637L75.5889 74.6724Z" fill="#F2F2F2" stroke="#1B1B1B" stroke-width="0.5" stroke-linecap="round" stroke-linejoin="round"/>
<path d="M107.99 56.3338L107.979 35.2668L89.576 45.8755L89.5871 66.9424L107.99 56.3338Z" fill="#F2F2F2" stroke="#1B1B1B" stroke-width="0.5" stroke-linecap="round" stroke-linejoin="round"/>
<path d="M89.5871 66.9424L89.576 45.8755L43.0102 19.957L43.0213 41.0253L89.5871 66.9424Z" fill="#F2F2F2" stroke="#1B1B1B" stroke-width="0.5" stroke-linecap="round" stroke-linejoin="round"/>
<path d="M89.576 45.8755L43.0102 19.9571L61.4129 9.34839L107.979 35.2668L89.576 45.8755Z" fill="#F2F2F2" stroke="#1B1B1B" stroke-width="0.5" stroke-linecap="round" stroke-linejoin="round"/>
</g>
<defs>
<clipPath id="clip0_33157_607">
<rect width="94" height="157" fill="white" transform="translate(28.5 9)"/>
</clipPath>
</defs>
</svg>
