<svg width="177" height="171" viewBox="0 0 177 171" fill="none" xmlns="http://www.w3.org/2000/svg">
<g clip-path="url(#clip0_33157_656)">
<g filter="url(#filter0_b_33157_656)">
<path d="M42.7307 13.2251C42.7307 13.2251 43.9809 42.638 32.9558 65.0197C25.1396 80.8871 20.8295 90.0304 19.7504 105.673C18.7639 119.973 22.407 131.915 28.9183 137.66C38.264 143.409 68.5833 161.6 75.4154 165.697C66.5504 159.042 62.6931 129.102 76.7915 102.32C91.1204 76.6826 90.8687 39.6685 91.1203 41.7349C113.325 47.3171 124.034 53.7506 137.574 75.8707L143.878 57.1881C132.563 47.9777 118.637 41.689 95.4145 29.2381L94.0951 37.5006C94.0951 37.5006 83.7632 33.6518 73.0826 25.7392C62.4021 17.8265 42.7307 13.2251 42.7307 13.2251Z" fill="#F2F2F2"/>
<path d="M85.7629 138.622L116.372 157.051C116.372 157.051 123.608 147.681 127.57 136.159C131.031 126.094 135.38 116.711 129.163 109.858C118.626 100.646 119.949 83.2052 119.949 83.2052C106.938 101.307 100.772 112.286 93.1082 134.322L89.5122 127.426C88.1552 131.279 86.935 134.802 85.9347 138.058C85.8767 138.247 85.8194 138.435 85.7629 138.622Z" fill="#F2F2F2"/>
<path d="M91.1203 41.7349C90.8687 39.6685 91.1204 76.6826 76.7915 102.32C62.6931 129.102 66.5504 159.042 75.4154 165.697C76.3006 166.228 76.7915 166.522 76.7915 166.522C82.344 169.365 86.8254 170.449 93.2315 170.444C82.7072 161.517 81.5962 152.41 85.7629 138.622C85.8194 138.435 85.8767 138.247 85.9347 138.058C86.935 134.802 88.1552 131.279 89.5122 127.426L93.1082 134.322C100.772 112.286 106.938 101.307 119.949 83.2052C119.949 83.2052 118.626 100.646 129.163 109.858C135.38 116.711 131.031 126.094 127.57 136.159C123.608 147.681 116.372 157.051 116.372 157.051C151.8 121.354 163.645 83.7799 143.878 57.1881L137.574 75.8707C124.034 53.7506 113.325 47.3171 91.1203 41.7349Z" fill="#DEDEDE"/>
<path d="M76.7915 166.522C82.344 169.365 86.8254 170.449 93.2315 170.444M76.7915 166.522C76.3212 166.309 75.862 166.033 75.4154 165.697M76.7915 166.522C76.7915 166.522 76.3006 166.228 75.4154 165.697M143.878 57.1881L137.574 75.8707C124.034 53.7506 113.325 47.3171 91.1203 41.7349C90.8687 39.6685 91.1204 76.6826 76.7915 102.32C62.6931 129.102 66.5504 159.042 75.4154 165.697M143.878 57.1881C163.645 83.7799 151.8 121.354 116.372 157.051M143.878 57.1881C132.563 47.9777 118.637 41.689 95.4145 29.2381L94.0951 37.5006C94.0951 37.5006 83.7632 33.6518 73.0826 25.7392C62.4021 17.8265 42.7307 13.2251 42.7307 13.2251C42.7307 13.2251 43.9809 42.638 32.9558 65.0197C25.1396 80.8871 20.8295 90.0304 19.7504 105.673C18.7639 119.973 22.407 131.915 28.9183 137.66C38.264 143.409 68.5833 161.6 75.4154 165.697M116.372 157.051L85.7629 138.622M116.372 157.051C116.372 157.051 123.608 147.681 127.57 136.159C131.031 126.094 135.38 116.711 129.163 109.858C118.626 100.646 119.949 83.2052 119.949 83.2052C106.938 101.307 100.772 112.286 93.1082 134.322L89.5122 127.426C88.1552 131.279 86.935 134.802 85.9347 138.058M85.7629 138.622C81.5962 152.41 82.7072 161.517 93.2315 170.444M85.7629 138.622C85.8194 138.435 85.8767 138.247 85.9347 138.058M93.2315 170.444C82.5645 161.396 81.5998 152.167 85.9347 138.058" stroke="black" stroke-width="0.443519"/>
</g>
</g>
<defs>
<filter id="filter0_b_33157_656" x="12.2725" y="5.84633" width="148.455" height="171.916" filterUnits="userSpaceOnUse" color-interpolation-filters="sRGB">
<feFlood flood-opacity="0" result="BackgroundImageFix"/>
<feGaussianBlur in="BackgroundImageFix" stdDeviation="3.54815"/>
<feComposite in2="SourceAlpha" operator="in" result="effect1_backgroundBlur_33157_656"/>
<feBlend mode="normal" in="SourceGraphic" in2="effect1_backgroundBlur_33157_656" result="shape"/>
</filter>
<clipPath id="clip0_33157_656">
<rect y="0.225098" width="177" height="170" rx="4" fill="white"/>
</clipPath>
</defs>
</svg>
