<svg width="25" height="18" viewBox="0 0 25 18" fill="none" xmlns="http://www.w3.org/2000/svg">
<path d="M18.3262 17.938C18.3262 17.938 17.5707 17.0351 16.9411 16.2581C19.6903 15.4812 20.7396 13.7803 20.7396 13.7803C19.8791 14.3473 19.0607 14.7462 18.3262 15.0192C17.2769 15.4602 16.2695 15.7332 15.2832 15.9221C13.2686 16.3001 11.4218 16.1951 9.84784 15.9011C8.65164 15.6702 7.62333 15.3552 6.7629 14.9982C6.28023 14.8092 5.75558 14.5783 5.23093 14.2843C5.16797 14.2423 5.10501 14.2213 5.04205 14.1793C5.00008 14.1583 4.9791 14.1373 4.95811 14.1373C4.58036 13.9273 4.3705 13.7803 4.3705 13.7803C4.3705 13.7803 5.37783 15.4392 8.04305 16.2371C7.41347 17.0351 6.63699 17.959 6.63699 17.959C1.99909 17.812 0.236267 14.7882 0.236267 14.7882C0.236267 8.08981 3.25825 2.65128 3.25825 2.65128C6.28023 0.404468 9.13432 0.467463 9.13432 0.467463L9.34418 0.719441C5.5667 1.79035 3.84585 3.44921 3.84585 3.44921C3.84585 3.44921 4.30755 3.19723 5.08403 2.86126C7.32952 1.87434 9.11333 1.62236 9.84784 1.53837C9.97376 1.51737 10.0787 1.49638 10.2046 1.49638C11.4847 1.32839 12.9328 1.28639 14.4438 1.45438C16.4374 1.68536 18.578 2.27331 20.7605 3.44921C20.7605 3.44921 19.1027 1.87434 15.535 0.803434L15.8288 0.467463C15.8288 0.467463 18.7039 0.404468 21.7049 2.65128C21.7049 2.65128 24.7269 8.08981 24.7269 14.7882C24.7269 14.7672 22.9641 17.791 18.3262 17.938V17.938Z" fill="black"/>
</svg>
