<svg width="20" height="24" viewBox="0 0 20 24" fill="none" xmlns="http://www.w3.org/2000/svg">
<path d="M5.03719 7.347L10.9669 3.9256C11.0255 3.89185 11.0616 3.8295 11.0616 3.76153L11.062 1.70981C11.062 1.40606 10.9373 1.10513 10.695 0.921846C10.3814 0.684658 9.97875 0.661221 9.64828 0.852471L1.35375 5.63888C1.06219 5.80716 0.882187 6.11841 0.882187 6.45497L0.878906 17.2643C0.878906 17.5676 1.00313 17.8686 1.245 18.0523C1.55813 18.29 1.96172 18.3134 2.29266 18.1222L4.04953 17.1087C4.10812 17.075 4.14422 17.0126 4.14422 16.9447L4.14656 8.88919C4.14656 8.25263 4.48594 7.66528 5.03719 7.347Z" fill="black"/>
<path d="M19.2516 5.79643C19.1039 5.71111 18.9417 5.66846 18.78 5.66846C18.6183 5.66846 18.4566 5.71111 18.3089 5.79643L10.0139 10.5824C9.72328 10.7502 9.54234 11.0628 9.54234 11.3985L9.53906 22.2486C9.53906 22.5894 9.71531 22.8946 10.0102 23.0652C10.3055 23.2358 10.6575 23.2358 10.9528 23.0652L19.2473 18.2788C19.538 18.111 19.7189 17.7983 19.7189 17.4627L19.7227 6.61299C19.7227 6.27221 19.5464 5.96658 19.2516 5.79643Z" fill="black"/>
<path d="M9.59484 9.85638L15.0689 6.69794C15.1275 6.66419 15.1636 6.60185 15.1636 6.53388L15.1645 4.14419C15.1645 3.84044 15.0398 3.5395 14.7975 3.35622C14.4839 3.11904 14.0817 3.09607 13.7508 3.28685L11.4806 4.59701L5.45531 8.07326C5.16375 8.24154 4.98375 8.55279 4.98375 8.88935L4.98141 17.054L4.98047 19.6983C4.98047 20.002 5.10469 20.3025 5.34656 20.4862C5.66016 20.7239 6.06328 20.7473 6.39422 20.5561L8.60672 19.2792C8.66531 19.2454 8.70141 19.1831 8.70141 19.1151L8.70375 11.3976C8.70422 10.762 9.04359 10.1742 9.59484 9.85638Z" fill="black"/>
</svg>
