<svg width="27" height="26" viewBox="0 0 27 26" fill="none" xmlns="http://www.w3.org/2000/svg">
<path fill-rule="evenodd" clip-rule="evenodd" d="M13.4417 0C6.07932 0 0.108337 5.94868 0.108337 13.2873C0.108337 19.1579 3.92922 24.1377 9.22666 25.895C9.89282 26.0183 10.1376 25.6069 10.1376 25.256C10.1376 24.9391 10.1251 23.8926 10.1194 22.7822C6.41041 23.5859 5.62783 21.214 5.62783 21.214C5.02074 19.6786 4.1473 19.27 4.1473 19.27C2.93708 18.4454 4.23816 18.4624 4.23816 18.4624C5.57729 18.5563 6.28206 19.832 6.28206 19.832C7.47126 21.8631 9.40101 21.2757 10.162 20.9361C10.2818 20.0781 10.6271 19.4913 11.0088 19.1596C8.04712 18.824 4.93385 17.6842 4.93385 12.5929C4.93385 11.1424 5.45519 9.95729 6.30762 9.02631C6.16961 8.69183 5.71302 7.34091 6.4371 5.51007C6.4371 5.51007 7.55644 5.15296 10.1046 6.87287C11.1683 6.57802 12.3087 6.4303 13.4417 6.42521C14.5746 6.4303 15.7161 6.57802 16.7815 6.87287C19.3269 5.15296 20.4445 5.51007 20.4445 5.51007C21.1703 7.34091 20.7137 8.69183 20.5757 9.02631C21.4304 9.95729 21.9478 11.1424 21.9478 12.5929C21.9478 17.6966 18.8288 18.82 15.8598 19.1489C16.338 19.5609 16.7639 20.3696 16.7639 21.6096C16.7639 23.3872 16.7486 24.8185 16.7486 25.256C16.7486 25.6097 16.9888 26.0234 17.6646 25.8933C22.9592 24.1349 26.775 19.1556 26.775 13.2873C26.775 5.94868 20.8052 0 13.4417 0Z" fill="black"/>
</svg>
