<svg width="24" height="20" viewBox="0 0 24 20" fill="none" xmlns="http://www.w3.org/2000/svg">
<path fill-rule="evenodd" clip-rule="evenodd" d="M20.8862 5.98778C20.8862 5.7884 20.8822 5.59064 20.8733 5.39368C21.7702 4.7455 22.5501 3.93669 23.1644 3.01567C22.3418 3.38133 21.4562 3.62753 20.527 3.73892C21.4756 3.16985 22.2029 2.27062 22.5468 1.19866C21.6588 1.72415 20.6763 2.10676 19.6301 2.31341C18.7913 1.41984 17.5981 0.862061 16.2774 0.862061C13.7401 0.862061 11.6831 2.91881 11.6831 5.45422C11.6831 5.81423 11.7235 6.16536 11.8018 6.50197C7.98411 6.30985 4.59913 4.48235 2.33387 1.70316C1.93911 2.38202 1.71145 3.16985 1.71145 4.01175C1.71145 5.60517 2.52278 7.01212 3.75551 7.83465C3.00231 7.81124 2.29432 7.60379 1.67512 7.26073C1.67432 7.2793 1.67432 7.29787 1.67432 7.31885C1.67432 9.5435 3.25822 11.4001 5.3596 11.8214C4.97372 11.9263 4.56765 11.9829 4.14867 11.9829C3.8532 11.9829 3.56499 11.9538 3.28486 11.9005C3.87015 13.7248 5.56546 15.0526 7.57643 15.0906C6.00382 16.3224 4.02354 17.0561 1.8713 17.0561C1.50075 17.0561 1.13505 17.0351 0.774994 16.9923C2.80856 18.2952 5.22236 19.0555 7.817 19.0555C16.2653 19.0555 20.8862 12.0571 20.8862 5.98778Z" fill="black"/>
</svg>
